<?xml version="1.0" encoding="utf-8"?>
<!-- Generator: Adobe Illustrator 18.1.1, SVG Export Plug-In . SVG Version: 6.00 Build 0)  -->
<!DOCTYPE svg PUBLIC "-//W3C//DTD SVG 1.1//EN" "http://www.w3.org/Graphics/SVG/1.1/DTD/svg11.dtd">
<svg version="1.1" id="Layer_1" xmlns="http://www.w3.org/2000/svg" xmlns:xlink="http://www.w3.org/1999/xlink" x="0px" y="0px"
	 viewBox="0 0 727.5 150.7" enable-background="new 0 0 727.5 150.7" xml:space="preserve">
<g>
	<g>
		<defs>
			<rect id="SVGID_367_" x="198.7" y="21.8" width="8.8" height="31.2"/>
		</defs>
		<clipPath id="SVGID_2_">
			<use xlink:href="#SVGID_367_"  overflow="visible"/>
		</clipPath>
		
			<linearGradient id="SVGID_3_" gradientUnits="userSpaceOnUse" x1="-2180.8452" y1="473.1895" x2="-2179.3105" y2="473.1895" gradientTransform="matrix(0 -35.2817 -35.2817 0 16898.0215 -76837.2266)">
			<stop  offset="0" style="stop-color:#1F3061"/>
			<stop  offset="1" style="stop-color:#01679A"/>
		</linearGradient>
		<rect x="198.7" y="21.8" clip-path="url(#SVGID_2_)" fill="url(#SVGID_3_)" width="8.8" height="31.2"/>
	</g>
	<g>
		<defs>
			<path id="SVGID_370_" d="M234.3,21.8v10.7c0,1.2,0,2.6,0.3,6.4l-13.2-17.1h-7.5V53h8.9V43l-0.1-6.8l13,16.8h7.5V21.8H234.3z"/>
		</defs>
		<clipPath id="SVGID_5_">
			<use xlink:href="#SVGID_370_"  overflow="visible"/>
		</clipPath>
		
			<linearGradient id="SVGID_6_" gradientUnits="userSpaceOnUse" x1="-2180.8452" y1="472.9389" x2="-2179.3105" y2="472.9389" gradientTransform="matrix(0 -35.2817 -35.2817 0 16914.5625 -76837.2266)">
			<stop  offset="0" style="stop-color:#1F3061"/>
			<stop  offset="1" style="stop-color:#01679A"/>
		</linearGradient>
		<rect x="213.8" y="21.8" clip-path="url(#SVGID_5_)" fill="url(#SVGID_6_)" width="29.3" height="31.2"/>
	</g>
	<g>
		<defs>
			<polygon id="SVGID_373_" points="247,21.8 247,29.1 256.1,29.1 256.1,53 264.9,53 264.9,29.1 274,29.1 274,21.8 			"/>
		</defs>
		<clipPath id="SVGID_8_">
			<use xlink:href="#SVGID_373_"  overflow="visible"/>
		</clipPath>
		
			<linearGradient id="SVGID_9_" gradientUnits="userSpaceOnUse" x1="-2180.8452" y1="472.623" x2="-2179.3105" y2="472.623" gradientTransform="matrix(0 -35.2817 -35.2817 0 16935.418 -76837.2266)">
			<stop  offset="0" style="stop-color:#1F3061"/>
			<stop  offset="1" style="stop-color:#01679A"/>
		</linearGradient>
		<rect x="247" y="21.8" clip-path="url(#SVGID_8_)" fill="url(#SVGID_9_)" width="27" height="31.2"/>
	</g>
	<g>
		<defs>
			<polygon id="SVGID_376_" points="277.8,21.8 277.8,53 302.8,53 302.8,45.6 286.5,45.6 286.5,40.9 301.3,40.9 301.3,33.7 
				286.5,33.7 286.5,29.2 302.2,29.2 302.2,21.8 			"/>
		</defs>
		<clipPath id="SVGID_11_">
			<use xlink:href="#SVGID_376_"  overflow="visible"/>
		</clipPath>
		
			<linearGradient id="SVGID_12_" gradientUnits="userSpaceOnUse" x1="-2180.8452" y1="472.3284" x2="-2179.3105" y2="472.3284" gradientTransform="matrix(0 -35.2817 -35.2817 0 16954.8652 -76837.2266)">
			<stop  offset="0" style="stop-color:#1F3061"/>
			<stop  offset="1" style="stop-color:#01679A"/>
		</linearGradient>
		<rect x="277.8" y="21.8" clip-path="url(#SVGID_11_)" fill="url(#SVGID_12_)" width="25" height="31.2"/>
	</g>
	<g>
		<defs>
			<path id="SVGID_379_" d="M305.8,37.5c0,8.2,4.7,16.4,17,16.4c6,0,11.5-2.1,13.4-6.1V33.9H321v6.9h7.9v4c-1.8,1.3-4.4,1.6-6,1.6
				c-6.3,0-8.4-5-8.4-9c0-6.1,3.3-9.1,8.4-9.1c2.1,0,4.9,0.6,7.1,2.7l5.1-5.1c-4.1-4.2-7.9-5-12.3-5
				C311.1,20.9,305.8,29.3,305.8,37.5"/>
		</defs>
		<clipPath id="SVGID_14_">
			<use xlink:href="#SVGID_379_"  overflow="visible"/>
		</clipPath>
		
			<linearGradient id="SVGID_15_" gradientUnits="userSpaceOnUse" x1="-2180.8452" y1="472.0255" x2="-2179.3105" y2="472.0255" gradientTransform="matrix(0 -35.2817 -35.2817 0 16974.8496 -76837.2266)">
			<stop  offset="0" style="stop-color:#1F3061"/>
			<stop  offset="1" style="stop-color:#01679A"/>
		</linearGradient>
		<rect x="305.8" y="20.9" clip-path="url(#SVGID_14_)" fill="url(#SVGID_15_)" width="30.5" height="33"/>
	</g>
	<g>
		<defs>
			<path id="SVGID_382_" d="M350.1,28.9h6.4c2.3,0,3.4,1.9,3.4,3.9c0,1.9-1,3.6-3.3,3.6h-6.5V28.9z M341.2,21.8V53h8.8V42.9h3.1
				l7.3,10.1h9.7v-0.5L362,42c5.3-2.3,6.6-5.6,6.6-9.4c0-5.6-4.1-10.8-12.1-10.8H341.2z"/>
		</defs>
		<clipPath id="SVGID_17_">
			<use xlink:href="#SVGID_382_"  overflow="visible"/>
		</clipPath>
		
			<linearGradient id="SVGID_18_" gradientUnits="userSpaceOnUse" x1="-2180.8452" y1="471.6832" x2="-2179.3105" y2="471.6832" gradientTransform="matrix(0 -35.2817 -35.2817 0 16997.4512 -76837.2266)">
			<stop  offset="0" style="stop-color:#1F3061"/>
			<stop  offset="1" style="stop-color:#01679A"/>
		</linearGradient>
		<rect x="341.2" y="21.8" clip-path="url(#SVGID_17_)" fill="url(#SVGID_18_)" width="28.9" height="31.2"/>
	</g>
	<g>
		<defs>
			<path id="SVGID_385_" d="M388.7,30.6l4,9.9h-8L388.7,30.6z M384.3,21.8l-14,31.2h9.4l2.1-5.1h14l2.1,5.1h9.5l-14-31.2H384.3z"/>
		</defs>
		<clipPath id="SVGID_20_">
			<use xlink:href="#SVGID_385_"  overflow="visible"/>
		</clipPath>
		
			<linearGradient id="SVGID_21_" gradientUnits="userSpaceOnUse" x1="-2180.8452" y1="471.3571" x2="-2179.3105" y2="471.3571" gradientTransform="matrix(0 -35.2817 -35.2817 0 17018.9746 -76837.2266)">
			<stop  offset="0" style="stop-color:#1F3061"/>
			<stop  offset="1" style="stop-color:#01679A"/>
		</linearGradient>
		<rect x="370.3" y="21.8" clip-path="url(#SVGID_20_)" fill="url(#SVGID_21_)" width="36.9" height="31.2"/>
	</g>
	<g>
		<defs>
			<polygon id="SVGID_388_" points="404.3,21.8 404.3,29.1 413.4,29.1 413.4,53 422.2,53 422.2,29.1 431.3,29.1 431.3,21.8 			"/>
		</defs>
		<clipPath id="SVGID_23_">
			<use xlink:href="#SVGID_388_"  overflow="visible"/>
		</clipPath>
		
			<linearGradient id="SVGID_24_" gradientUnits="userSpaceOnUse" x1="-2180.8452" y1="471.0697" x2="-2179.3105" y2="471.0697" gradientTransform="matrix(0 -35.2817 -35.2817 0 17037.9414 -76837.2266)">
			<stop  offset="0" style="stop-color:#1F3061"/>
			<stop  offset="1" style="stop-color:#01679A"/>
		</linearGradient>
		<rect x="404.3" y="21.8" clip-path="url(#SVGID_23_)" fill="url(#SVGID_24_)" width="27" height="31.2"/>
	</g>
	<g>
		<defs>
			<polygon id="SVGID_391_" points="435.2,21.8 435.2,53 460.2,53 460.2,45.6 443.9,45.6 443.9,40.9 458.6,40.9 458.6,33.7 
				443.9,33.7 443.9,29.2 459.5,29.2 459.5,21.8 			"/>
		</defs>
		<clipPath id="SVGID_26_">
			<use xlink:href="#SVGID_391_"  overflow="visible"/>
		</clipPath>
		
			<linearGradient id="SVGID_27_" gradientUnits="userSpaceOnUse" x1="-2180.8452" y1="470.7751" x2="-2179.3105" y2="470.7751" gradientTransform="matrix(0 -35.2817 -35.2817 0 17057.3887 -76837.2266)">
			<stop  offset="0" style="stop-color:#1F3061"/>
			<stop  offset="1" style="stop-color:#01679A"/>
		</linearGradient>
		<rect x="435.2" y="21.8" clip-path="url(#SVGID_26_)" fill="url(#SVGID_27_)" width="25" height="31.2"/>
	</g>
	<g>
		<defs>
			<path id="SVGID_394_" d="M473.9,29.2h4.6c5.4,0,7.6,3.7,7.6,7.9c0,4.3-2,8.5-7.6,8.5h-4.6V29.2z M465.1,21.8V53h13.4
				c11.2,0,16.3-7.2,16.3-15.8s-5.3-15.4-16.3-15.4H465.1z"/>
		</defs>
		<clipPath id="SVGID_29_">
			<use xlink:href="#SVGID_394_"  overflow="visible"/>
		</clipPath>
		
			<linearGradient id="SVGID_30_" gradientUnits="userSpaceOnUse" x1="-2180.8452" y1="470.4558" x2="-2179.3105" y2="470.4558" gradientTransform="matrix(0 -35.2817 -35.2817 0 17078.4629 -76837.2266)">
			<stop  offset="0" style="stop-color:#1F3061"/>
			<stop  offset="1" style="stop-color:#01679A"/>
		</linearGradient>
		<rect x="465.1" y="21.8" clip-path="url(#SVGID_29_)" fill="url(#SVGID_30_)" width="29.7" height="31.2"/>
	</g>
	<g>
		<defs>
			<polygon id="SVGID_397_" points="509.7,21.8 509.7,53 518.4,53 518.4,42.3 532.7,42.3 532.7,35.1 518.4,35.1 518.4,29.2 
				533.6,29.2 533.6,21.8 			"/>
		</defs>
		<clipPath id="SVGID_32_">
			<use xlink:href="#SVGID_397_"  overflow="visible"/>
		</clipPath>
		
			<linearGradient id="SVGID_33_" gradientUnits="userSpaceOnUse" x1="-2180.8452" y1="470.0447" x2="-2179.3105" y2="470.0447" gradientTransform="matrix(0 -35.2817 -35.2817 0 17105.5977 -76837.2266)">
			<stop  offset="0" style="stop-color:#1F3061"/>
			<stop  offset="1" style="stop-color:#01679A"/>
		</linearGradient>
		<rect x="509.7" y="21.8" clip-path="url(#SVGID_32_)" fill="url(#SVGID_33_)" width="24" height="31.2"/>
	</g>
	<g>
		<defs>
			<path id="SVGID_400_" d="M551.1,30.6l4,9.9h-8L551.1,30.6z M546.6,21.8l-14,31.2h9.4l2.1-5.1h14l2.1,5.1h9.5l-14-31.2H546.6z"/>
		</defs>
		<clipPath id="SVGID_35_">
			<use xlink:href="#SVGID_400_"  overflow="visible"/>
		</clipPath>
		
			<linearGradient id="SVGID_36_" gradientUnits="userSpaceOnUse" x1="-2180.8452" y1="469.754" x2="-2179.3105" y2="469.754" gradientTransform="matrix(0 -35.2817 -35.2817 0 17124.7832 -76837.2266)">
			<stop  offset="0" style="stop-color:#1F3061"/>
			<stop  offset="1" style="stop-color:#01679A"/>
		</linearGradient>
		<rect x="532.6" y="21.8" clip-path="url(#SVGID_35_)" fill="url(#SVGID_36_)" width="36.9" height="31.2"/>
	</g>
	<g>
		<defs>
			<path id="SVGID_403_" d="M569.3,37.6c0,8.5,4.8,16.2,17.1,16.2c4.7,0,9-1.4,12.5-4.9l-5.2-5.8c-2.2,2.3-5.3,3.2-7.4,3.2
				c-6.2,0-8.3-4.6-8.3-8.7c0-4.1,2.3-9,8.3-9c2.1,0,4.4,0.6,6.6,2.7l5.4-5.4c-3.5-3.4-7.6-5-12.1-5
				C574.7,21.1,569.3,29.6,569.3,37.6"/>
		</defs>
		<clipPath id="SVGID_38_">
			<use xlink:href="#SVGID_403_"  overflow="visible"/>
		</clipPath>
		
			<linearGradient id="SVGID_39_" gradientUnits="userSpaceOnUse" x1="-2180.8452" y1="469.4285" x2="-2179.3105" y2="469.4285" gradientTransform="matrix(0 -35.2817 -35.2817 0 17146.3066 -76837.2266)">
			<stop  offset="0" style="stop-color:#1F3061"/>
			<stop  offset="1" style="stop-color:#01679A"/>
		</linearGradient>
		<rect x="569.3" y="21.1" clip-path="url(#SVGID_38_)" fill="url(#SVGID_39_)" width="29.7" height="32.7"/>
	</g>
	<g>
		<defs>
			<rect id="SVGID_406_" x="602.5" y="21.8" width="8.8" height="31.2"/>
		</defs>
		<clipPath id="SVGID_41_">
			<use xlink:href="#SVGID_406_"  overflow="visible"/>
		</clipPath>
		
			<linearGradient id="SVGID_42_" gradientUnits="userSpaceOnUse" x1="-2180.8452" y1="469.2027" x2="-2179.3105" y2="469.2027" gradientTransform="matrix(0 -35.2817 -35.2817 0 17161.1738 -76837.2266)">
			<stop  offset="0" style="stop-color:#1F3061"/>
			<stop  offset="1" style="stop-color:#01679A"/>
		</linearGradient>
		<rect x="602.5" y="21.8" clip-path="url(#SVGID_41_)" fill="url(#SVGID_42_)" width="8.8" height="31.2"/>
	</g>
	<g>
		<defs>
			<polygon id="SVGID_409_" points="617.6,21.8 617.6,53 641.4,53 641.4,45.5 626.5,45.5 626.5,21.8 			"/>
		</defs>
		<clipPath id="SVGID_44_">
			<use xlink:href="#SVGID_409_"  overflow="visible"/>
		</clipPath>
		
			<linearGradient id="SVGID_45_" gradientUnits="userSpaceOnUse" x1="-2180.8452" y1="468.9794" x2="-2179.3105" y2="468.9794" gradientTransform="matrix(0 -35.2817 -35.2817 0 17175.9121 -76837.2266)">
			<stop  offset="0" style="stop-color:#1F3061"/>
			<stop  offset="1" style="stop-color:#01679A"/>
		</linearGradient>
		<rect x="617.6" y="21.8" clip-path="url(#SVGID_44_)" fill="url(#SVGID_45_)" width="23.8" height="31.2"/>
	</g>
	<g>
		<defs>
			<rect id="SVGID_412_" x="645.3" y="21.8" width="8.8" height="31.2"/>
		</defs>
		<clipPath id="SVGID_47_">
			<use xlink:href="#SVGID_412_"  overflow="visible"/>
		</clipPath>
		
			<linearGradient id="SVGID_48_" gradientUnits="userSpaceOnUse" x1="-2180.8452" y1="468.7803" x2="-2179.3105" y2="468.7803" gradientTransform="matrix(0 -35.2817 -35.2817 0 17189.0488 -76837.2266)">
			<stop  offset="0" style="stop-color:#1F3061"/>
			<stop  offset="1" style="stop-color:#01679A"/>
		</linearGradient>
		<rect x="645.3" y="21.8" clip-path="url(#SVGID_47_)" fill="url(#SVGID_48_)" width="8.8" height="31.2"/>
	</g>
	<g>
		<defs>
			<polygon id="SVGID_415_" points="657.9,21.8 657.9,29.1 667,29.1 667,53 675.8,53 675.8,29.1 685,29.1 685,21.8 			"/>
		</defs>
		<clipPath id="SVGID_50_">
			<use xlink:href="#SVGID_415_"  overflow="visible"/>
		</clipPath>
		
			<linearGradient id="SVGID_51_" gradientUnits="userSpaceOnUse" x1="-2180.8452" y1="468.5656" x2="-2179.3105" y2="468.5656" gradientTransform="matrix(0 -35.2817 -35.2817 0 17203.2207 -76837.2266)">
			<stop  offset="0" style="stop-color:#1F3061"/>
			<stop  offset="1" style="stop-color:#01679A"/>
		</linearGradient>
		<rect x="657.9" y="21.8" clip-path="url(#SVGID_50_)" fill="url(#SVGID_51_)" width="27" height="31.2"/>
	</g>
	<g>
		<defs>
			<polygon id="SVGID_418_" points="708.5,21.8 701.8,32.5 695.3,21.8 685.4,21.8 685.4,22.2 697.2,40.6 697.2,53 706.1,53 
				706.1,40.6 718.5,22.2 718.5,21.8 			"/>
		</defs>
		<clipPath id="SVGID_53_">
			<use xlink:href="#SVGID_418_"  overflow="visible"/>
		</clipPath>
		
			<linearGradient id="SVGID_54_" gradientUnits="userSpaceOnUse" x1="-2180.8452" y1="468.2649" x2="-2179.3105" y2="468.2649" gradientTransform="matrix(0 -35.2817 -35.2817 0 17223.0742 -76837.2266)">
			<stop  offset="0" style="stop-color:#1F3061"/>
			<stop  offset="1" style="stop-color:#01679A"/>
		</linearGradient>
		<rect x="685.4" y="21.8" clip-path="url(#SVGID_53_)" fill="url(#SVGID_54_)" width="33.1" height="31.2"/>
	</g>
	<g>
		<defs>
			<polygon id="SVGID_421_" points="220.9,61.8 213.7,71.1 206.4,61.8 198.3,61.8 198.3,89.3 206,89.3 206,72.9 212.9,81.2 
				214.3,81.2 221.3,72.9 221.3,89.3 229,89.3 229,61.8 			"/>
		</defs>
		<clipPath id="SVGID_56_">
			<use xlink:href="#SVGID_421_"  overflow="visible"/>
		</clipPath>
		
			<linearGradient id="SVGID_57_" gradientUnits="userSpaceOnUse" x1="-2180.8452" y1="473.0855" x2="-2179.3105" y2="473.0855" gradientTransform="matrix(0 -35.2817 -35.2817 0 16904.8867 -76837.2266)">
			<stop  offset="0" style="stop-color:#1F3061"/>
			<stop  offset="1" style="stop-color:#01679A"/>
		</linearGradient>
		<rect x="198.3" y="61.8" clip-path="url(#SVGID_56_)" fill="url(#SVGID_57_)" width="30.6" height="27.4"/>
	</g>
	<g>
		<defs>
			<path id="SVGID_424_" d="M247.3,69.5l3.5,8.7h-7L247.3,69.5z M243.4,61.8l-12.3,27.4h8.2l1.8-4.5h12.3l1.8,4.5h8.3l-12.3-27.4
				H243.4z"/>
		</defs>
		<clipPath id="SVGID_59_">
			<use xlink:href="#SVGID_424_"  overflow="visible"/>
		</clipPath>
		
			<linearGradient id="SVGID_60_" gradientUnits="userSpaceOnUse" x1="-2180.8452" y1="472.7527" x2="-2179.3105" y2="472.7527" gradientTransform="matrix(0 -35.2817 -35.2817 0 16926.8516 -76837.2266)">
			<stop  offset="0" style="stop-color:#1F3061"/>
			<stop  offset="1" style="stop-color:#01679A"/>
		</linearGradient>
		<rect x="231.1" y="61.8" clip-path="url(#SVGID_59_)" fill="url(#SVGID_60_)" width="32.4" height="27.4"/>
	</g>
	<g>
		<defs>
			<path id="SVGID_427_" d="M283.7,61.8v9.4c0,1.1,0,2.3,0.2,5.6l-11.6-15h-6.6v27.4h7.8v-8.8l-0.1-6l11.5,14.8h6.6V61.8H283.7z"/>
		</defs>
		<clipPath id="SVGID_62_">
			<use xlink:href="#SVGID_427_"  overflow="visible"/>
		</clipPath>
		
			<linearGradient id="SVGID_63_" gradientUnits="userSpaceOnUse" x1="-2180.8452" y1="472.4439" x2="-2179.3105" y2="472.4439" gradientTransform="matrix(0 -35.2817 -35.2817 0 16947.2344 -76837.2266)">
			<stop  offset="0" style="stop-color:#1F3061"/>
			<stop  offset="1" style="stop-color:#01679A"/>
		</linearGradient>
		<rect x="265.7" y="61.8" clip-path="url(#SVGID_62_)" fill="url(#SVGID_63_)" width="25.8" height="27.4"/>
	</g>
	<g>
		<defs>
			<path id="SVGID_430_" d="M309.9,69.5l3.5,8.7h-7L309.9,69.5z M306,61.8l-12.3,27.4h8.2l1.8-4.5H316l1.8,4.5h8.3l-12.3-27.4H306z"
				/>
		</defs>
		<clipPath id="SVGID_65_">
			<use xlink:href="#SVGID_430_"  overflow="visible"/>
		</clipPath>
		
			<linearGradient id="SVGID_66_" gradientUnits="userSpaceOnUse" x1="-2180.8452" y1="472.1351" x2="-2179.3105" y2="472.1351" gradientTransform="matrix(0 -35.2817 -35.2817 0 16967.6172 -76837.2266)">
			<stop  offset="0" style="stop-color:#1F3061"/>
			<stop  offset="1" style="stop-color:#01679A"/>
		</linearGradient>
		<rect x="293.7" y="61.8" clip-path="url(#SVGID_65_)" fill="url(#SVGID_66_)" width="32.4" height="27.4"/>
	</g>
	<g>
		<defs>
			<path id="SVGID_433_" d="M325.9,75.6c0,7.2,4.1,14.4,15,14.4c5.3,0,10.1-1.9,11.8-5.4V72.4h-13.4v6.1h6.9V82
				c-1.6,1.1-3.8,1.4-5.3,1.4c-5.5,0-7.4-4.4-7.4-7.9c0-5.4,2.9-8,7.4-8c1.8,0,4.3,0.5,6.3,2.4l4.5-4.5c-3.6-3.6-7-4.4-10.8-4.4
				C330.6,61,325.9,68.4,325.9,75.6"/>
		</defs>
		<clipPath id="SVGID_68_">
			<use xlink:href="#SVGID_433_"  overflow="visible"/>
		</clipPath>
		
			<linearGradient id="SVGID_69_" gradientUnits="userSpaceOnUse" x1="-2180.8452" y1="471.8453" x2="-2179.3105" y2="471.8453" gradientTransform="matrix(0 -35.2817 -35.2817 0 16986.748 -76837.2266)">
			<stop  offset="0" style="stop-color:#1F3061"/>
			<stop  offset="1" style="stop-color:#01679A"/>
		</linearGradient>
		<rect x="325.9" y="61" clip-path="url(#SVGID_68_)" fill="url(#SVGID_69_)" width="26.8" height="29"/>
	</g>
	<g>
		<defs>
			<polygon id="SVGID_436_" points="357,61.8 357,89.3 379,89.3 379,82.7 364.7,82.7 364.7,78.5 377.7,78.5 377.7,72.2 364.7,72.2 
				364.7,68.3 378.4,68.3 378.4,61.8 			"/>
		</defs>
		<clipPath id="SVGID_71_">
			<use xlink:href="#SVGID_436_"  overflow="visible"/>
		</clipPath>
		
			<linearGradient id="SVGID_72_" gradientUnits="userSpaceOnUse" x1="-2180.8452" y1="471.5615" x2="-2179.3105" y2="471.5615" gradientTransform="matrix(0 -35.2817 -35.2817 0 17005.4824 -76837.2266)">
			<stop  offset="0" style="stop-color:#1F3061"/>
			<stop  offset="1" style="stop-color:#01679A"/>
		</linearGradient>
		<rect x="357" y="61.8" clip-path="url(#SVGID_71_)" fill="url(#SVGID_72_)" width="22" height="27.4"/>
	</g>
	<g>
		<defs>
			<polygon id="SVGID_439_" points="405.9,61.8 398.7,71.1 391.5,61.8 383.4,61.8 383.4,89.3 391.1,89.3 391.1,72.9 397.9,81.2 
				399.3,81.2 406.3,72.9 406.3,89.3 414,89.3 414,61.8 			"/>
		</defs>
		<clipPath id="SVGID_74_">
			<use xlink:href="#SVGID_439_"  overflow="visible"/>
		</clipPath>
		
			<linearGradient id="SVGID_75_" gradientUnits="userSpaceOnUse" x1="-2180.8452" y1="471.2586" x2="-2179.3105" y2="471.2586" gradientTransform="matrix(0 -35.2817 -35.2817 0 17025.4707 -76837.2266)">
			<stop  offset="0" style="stop-color:#1F3061"/>
			<stop  offset="1" style="stop-color:#01679A"/>
		</linearGradient>
		<rect x="383.4" y="61.8" clip-path="url(#SVGID_74_)" fill="url(#SVGID_75_)" width="30.6" height="27.4"/>
	</g>
	<g>
		<defs>
			<polygon id="SVGID_442_" points="419.6,61.8 419.6,89.3 441.5,89.3 441.5,82.7 427.2,82.7 427.2,78.5 440.2,78.5 440.2,72.2 
				427.2,72.2 427.2,68.3 441,68.3 441,61.8 			"/>
		</defs>
		<clipPath id="SVGID_77_">
			<use xlink:href="#SVGID_442_"  overflow="visible"/>
		</clipPath>
		
			<linearGradient id="SVGID_78_" gradientUnits="userSpaceOnUse" x1="-2180.8452" y1="470.9442" x2="-2179.3105" y2="470.9442" gradientTransform="matrix(0 -35.2817 -35.2817 0 17046.2227 -76837.2266)">
			<stop  offset="0" style="stop-color:#1F3061"/>
			<stop  offset="1" style="stop-color:#01679A"/>
		</linearGradient>
		<rect x="419.6" y="61.8" clip-path="url(#SVGID_77_)" fill="url(#SVGID_78_)" width="22" height="27.4"/>
	</g>
	<g>
		<defs>
			<path id="SVGID_445_" d="M463.8,61.8v9.4c0,1.1,0,2.3,0.2,5.6l-11.6-15h-6.6v27.4h7.8v-8.8l-0.1-6l11.5,14.8h6.6V61.8H463.8z"/>
		</defs>
		<clipPath id="SVGID_80_">
			<use xlink:href="#SVGID_445_"  overflow="visible"/>
		</clipPath>
		
			<linearGradient id="SVGID_81_" gradientUnits="userSpaceOnUse" x1="-2180.8452" y1="470.6654" x2="-2179.3105" y2="470.6654" gradientTransform="matrix(0 -35.2817 -35.2817 0 17064.627 -76837.2266)">
			<stop  offset="0" style="stop-color:#1F3061"/>
			<stop  offset="1" style="stop-color:#01679A"/>
		</linearGradient>
		<rect x="445.9" y="61.8" clip-path="url(#SVGID_80_)" fill="url(#SVGID_81_)" width="25.8" height="27.4"/>
	</g>
	<g>
		<defs>
			<polygon id="SVGID_448_" points="475,61.8 475,68.2 483,68.2 483,89.3 490.7,89.3 490.7,68.2 498.8,68.2 498.8,61.8 			"/>
		</defs>
		<clipPath id="SVGID_83_">
			<use xlink:href="#SVGID_448_"  overflow="visible"/>
		</clipPath>
		
			<linearGradient id="SVGID_84_" gradientUnits="userSpaceOnUse" x1="-2180.8452" y1="470.3878" x2="-2179.3105" y2="470.3878" gradientTransform="matrix(0 -35.2817 -35.2817 0 17082.9531 -76837.2266)">
			<stop  offset="0" style="stop-color:#1F3061"/>
			<stop  offset="1" style="stop-color:#01679A"/>
		</linearGradient>
		<rect x="475" y="61.8" clip-path="url(#SVGID_83_)" fill="url(#SVGID_84_)" width="23.8" height="27.4"/>
	</g>
	<g>
		<defs>
			<path id="SVGID_451_" d="M509,69.6c0,6.8,5.2,8.4,11.2,8.9c3,0.3,4.6,1.1,4.6,2.5c0,1.5-1.8,2.4-4.3,2.4c-2.3,0-5.3-0.5-8-3.1
				l-4.3,4.9c3.8,4,7.3,4.9,12.3,4.8c6.2,0,12-2.7,12-8.9c0-6.3-5.7-8.5-11.1-9.1c-2.7-0.3-4.5-0.6-4.5-2.4c0-1.5,1.8-2,3.7-2
				c2.4,0,4.5,0.5,6.4,1.9l3.8-4.9c-2.9-2.3-6.2-3.3-10.3-3.3C514.7,61.3,509,63.8,509,69.6"/>
		</defs>
		<clipPath id="SVGID_86_">
			<use xlink:href="#SVGID_451_"  overflow="visible"/>
		</clipPath>
		
			<linearGradient id="SVGID_87_" gradientUnits="userSpaceOnUse" x1="-2180.8452" y1="470.0581" x2="-2179.3105" y2="470.0581" gradientTransform="matrix(0 -35.2817 -35.2817 0 17104.7129 -76837.2266)">
			<stop  offset="0" style="stop-color:#1F3061"/>
			<stop  offset="1" style="stop-color:#01679A"/>
		</linearGradient>
		<rect x="508.1" y="61.3" clip-path="url(#SVGID_86_)" fill="url(#SVGID_87_)" width="24.3" height="28.8"/>
	</g>
	<g>
		<defs>
			<polygon id="SVGID_454_" points="536.1,61.8 536.1,89.3 558.1,89.3 558.1,82.7 543.8,82.7 543.8,78.5 556.7,78.5 556.7,72.2 
				543.8,72.2 543.8,68.3 557.5,68.3 557.5,61.8 			"/>
		</defs>
		<clipPath id="SVGID_89_">
			<use xlink:href="#SVGID_454_"  overflow="visible"/>
		</clipPath>
		
			<linearGradient id="SVGID_90_" gradientUnits="userSpaceOnUse" x1="-2180.8452" y1="469.7934" x2="-2179.3105" y2="469.7934" gradientTransform="matrix(0 -35.2817 -35.2817 0 17122.1855 -76837.2266)">
			<stop  offset="0" style="stop-color:#1F3061"/>
			<stop  offset="1" style="stop-color:#01679A"/>
		</linearGradient>
		<rect x="536.1" y="61.8" clip-path="url(#SVGID_89_)" fill="url(#SVGID_90_)" width="22" height="27.4"/>
	</g>
	<g>
		<defs>
			<path id="SVGID_457_" d="M570.2,68h5.6c2,0,3,1.7,3,3.4c0,1.6-0.9,3.2-2.9,3.2h-5.7V68z M562.5,61.8v27.4h7.8v-8.9h2.7l6.4,8.9
				h8.6v-0.5l-7.1-9.3c4.6-2,5.8-4.9,5.8-8.3c0-4.9-3.6-9.5-10.7-9.5H562.5z"/>
		</defs>
		<clipPath id="SVGID_92_">
			<use xlink:href="#SVGID_457_"  overflow="visible"/>
		</clipPath>
		
			<linearGradient id="SVGID_93_" gradientUnits="userSpaceOnUse" x1="-2180.8452" y1="469.5163" x2="-2179.3105" y2="469.5163" gradientTransform="matrix(0 -35.2817 -35.2817 0 17140.4746 -76837.2266)">
			<stop  offset="0" style="stop-color:#1F3061"/>
			<stop  offset="1" style="stop-color:#01679A"/>
		</linearGradient>
		<rect x="562.5" y="61.8" clip-path="url(#SVGID_92_)" fill="url(#SVGID_93_)" width="25.4" height="27.4"/>
	</g>
	<g>
		<defs>
			<polygon id="SVGID_460_" points="609.1,61.8 605.9,70 602.4,80.2 599,70 595.9,61.8 587.3,61.8 598.7,89.4 606.2,89.4 
				617.7,61.8 			"/>
		</defs>
		<clipPath id="SVGID_95_">
			<use xlink:href="#SVGID_460_"  overflow="visible"/>
		</clipPath>
		
			<linearGradient id="SVGID_96_" gradientUnits="userSpaceOnUse" x1="-2180.8452" y1="469.2468" x2="-2179.3105" y2="469.2468" gradientTransform="matrix(0 -35.2817 -35.2817 0 17158.2637 -76837.2266)">
			<stop  offset="0" style="stop-color:#1F3061"/>
			<stop  offset="1" style="stop-color:#01679A"/>
		</linearGradient>
		<rect x="587.3" y="61.8" clip-path="url(#SVGID_95_)" fill="url(#SVGID_96_)" width="30.4" height="27.6"/>
	</g>
	<g>
		<defs>
			<rect id="SVGID_463_" x="619.9" y="61.8" width="7.7" height="27.4"/>
		</defs>
		<clipPath id="SVGID_98_">
			<use xlink:href="#SVGID_463_"  overflow="visible"/>
		</clipPath>
		
			<linearGradient id="SVGID_99_" gradientUnits="userSpaceOnUse" x1="-2180.8452" y1="469.0363" x2="-2179.3105" y2="469.0363" gradientTransform="matrix(0 -35.2817 -35.2817 0 17172.1563 -76837.2266)">
			<stop  offset="0" style="stop-color:#1F3061"/>
			<stop  offset="1" style="stop-color:#01679A"/>
		</linearGradient>
		<rect x="619.9" y="61.8" clip-path="url(#SVGID_98_)" fill="url(#SVGID_99_)" width="7.7" height="27.4"/>
	</g>
	<g>
		<defs>
			<path id="SVGID_466_" d="M631.7,75.7c0,7.4,4.2,14.2,15,14.2c4.2,0,7.9-1.2,11-4.3l-4.5-5.1c-2,2-4.6,2.8-6.5,2.8
				c-5.4,0-7.3-4-7.3-7.6c0-3.6,2-7.9,7.3-7.9c1.8,0,3.9,0.5,5.8,2.4l4.8-4.7c-3.1-3-6.7-4.4-10.6-4.4
				C636.4,61.2,631.7,68.7,631.7,75.7"/>
		</defs>
		<clipPath id="SVGID_101_">
			<use xlink:href="#SVGID_466_"  overflow="visible"/>
		</clipPath>
		
			<linearGradient id="SVGID_102_" gradientUnits="userSpaceOnUse" x1="-2180.8452" y1="468.83" x2="-2179.3105" y2="468.83" gradientTransform="matrix(0 -35.2817 -35.2817 0 17185.8105 -76837.2266)">
			<stop  offset="0" style="stop-color:#1F3061"/>
			<stop  offset="1" style="stop-color:#01679A"/>
		</linearGradient>
		<rect x="631.7" y="61.2" clip-path="url(#SVGID_101_)" fill="url(#SVGID_102_)" width="26.1" height="28.8"/>
	</g>
	<g>
		<defs>
			<polygon id="SVGID_469_" points="660.9,61.8 660.9,89.3 682.9,89.3 682.9,82.7 668.6,82.7 668.6,78.5 681.5,78.5 681.5,72.2 
				668.6,72.2 668.6,68.3 682.3,68.3 682.3,61.8 			"/>
		</defs>
		<clipPath id="SVGID_104_">
			<use xlink:href="#SVGID_469_"  overflow="visible"/>
		</clipPath>
		
			<linearGradient id="SVGID_105_" gradientUnits="userSpaceOnUse" x1="-2180.8452" y1="468.5613" x2="-2179.3105" y2="468.5613" gradientTransform="matrix(0 -35.2817 -35.2817 0 17203.5098 -76837.2266)">
			<stop  offset="0" style="stop-color:#1F3061"/>
			<stop  offset="1" style="stop-color:#01679A"/>
		</linearGradient>
		<rect x="660.9" y="61.8" clip-path="url(#SVGID_104_)" fill="url(#SVGID_105_)" width="22" height="27.4"/>
	</g>
	<g>
		<defs>
			<path id="SVGID_472_" d="M686.2,69.6c0,6.8,5.2,8.4,11.2,8.9c3,0.3,4.6,1.1,4.6,2.5c0,1.5-1.8,2.4-4.3,2.4c-2.3,0-5.3-0.5-8-3.1
				l-4.3,4.9c3.8,4,7.3,4.9,12.3,4.8c6.2,0,12-2.7,12-8.9c0-6.3-5.7-8.5-11.1-9.1c-2.7-0.3-4.5-0.6-4.5-2.4c0-1.5,1.8-2,3.7-2
				c2.4,0,4.5,0.5,6.4,1.9l3.8-4.9c-2.9-2.3-6.2-3.3-10.3-3.3C691.9,61.3,686.2,63.8,686.2,69.6"/>
		</defs>
		<clipPath id="SVGID_107_">
			<use xlink:href="#SVGID_472_"  overflow="visible"/>
		</clipPath>
		
			<linearGradient id="SVGID_108_" gradientUnits="userSpaceOnUse" x1="-2180.8452" y1="468.3082" x2="-2179.3105" y2="468.3082" gradientTransform="matrix(0 -35.2817 -35.2817 0 17220.2168 -76837.2266)">
			<stop  offset="0" style="stop-color:#1F3061"/>
			<stop  offset="1" style="stop-color:#01679A"/>
		</linearGradient>
		<rect x="685.4" y="61.3" clip-path="url(#SVGID_107_)" fill="url(#SVGID_108_)" width="24.3" height="28.8"/>
	</g>
	<g>
		<defs>
			<path id="SVGID_475_" d="M179.6,70.1L179.6,70.1L179.6,70.1z M112.3,6.1l-57,12c-0.3,0.1-0.6,0.1-0.8,0.2
				c44.8,14.9,87.1,37,125.1,65.2V70.1V26.4c0-4-2.8-7.5-6.7-8.4l-57-12c-0.6-0.1-1.2-0.2-1.8-0.2S112.9,6,112.3,6.1"/>
		</defs>
		<clipPath id="SVGID_110_">
			<use xlink:href="#SVGID_475_"  overflow="visible"/>
		</clipPath>
		
			<radialGradient id="SVGID_111_" cx="-2229.1025" cy="536.4718" r="1.5345" gradientTransform="matrix(-45.7862 0 0 -45.7862 -101911.3516 24597.8652)" gradientUnits="userSpaceOnUse">
			<stop  offset="0" style="stop-color:#5DCBF5"/>
			<stop  offset="0.6663" style="stop-color:#2A80B0"/>
			<stop  offset="1" style="stop-color:#01679A"/>
		</radialGradient>
		<rect x="54.5" y="5.9" clip-path="url(#SVGID_110_)" fill="url(#SVGID_111_)" width="125.1" height="77.5"/>
	</g>
	<g>
		<defs>
			<path id="SVGID_478_" d="M48.4,32.7v58.5c0,2.5,1.2,4.9,3.1,6.5l57.1,48.2c3.2,2.7,7.8,2.7,11,0l39.4-33.2
				c13.7,9.5,34.7,30.7,34.7,30.7c-16.1-20.5-30.3-34.3-30.3-34.3h-0.1l0.1-0.1C128.9,76.2,90.3,47.9,48.7,25c0,0,0,0,0,0
				c0,0,0,0,0,0C36.4,18.3,24,12.1,11.4,6.3C11.4,6.3,33.2,18.2,48.4,32.7"/>
		</defs>
		<clipPath id="SVGID_113_">
			<use xlink:href="#SVGID_478_"  overflow="visible"/>
		</clipPath>
		
			<radialGradient id="SVGID_114_" cx="-2220.0996" cy="536.0997" r="1.5345" gradientTransform="matrix(-56.3163 0 0 -56.3163 -124896.9297 30251.7363)" gradientUnits="userSpaceOnUse">
			<stop  offset="0" style="stop-color:#1DBCEE"/>
			<stop  offset="0.5918" style="stop-color:#01679A"/>
			<stop  offset="1" style="stop-color:#1F3061"/>
		</radialGradient>
		<rect x="11.4" y="6.3" clip-path="url(#SVGID_113_)" fill="url(#SVGID_114_)" width="182.2" height="142.3"/>
	</g>
	<g>
		<defs>
			<path id="SVGID_481_" d="M91.7,21.1c27.1,11.5,53,25.5,77.4,42.1V28L114,16.5L91.7,21.1z"/>
		</defs>
		<clipPath id="SVGID_116_">
			<use xlink:href="#SVGID_481_"  overflow="visible"/>
		</clipPath>
		<defs>
			<filter id="Adobe_OpacityMaskFilter" filterUnits="userSpaceOnUse" x="71.4" y="-17.1" width="117.9" height="113.8">
				<feColorMatrix  type="matrix" values="1 0 0 0 0  0 1 0 0 0  0 0 1 0 0  0 0 0 1 0"/>
			</filter>
		</defs>
		<mask maskUnits="userSpaceOnUse" x="71.4" y="-17.1" width="117.9" height="113.8" id="SVGID_117_">
			<g filter="url(#Adobe_OpacityMaskFilter)">
				
					<linearGradient id="SVGID_118_" gradientUnits="userSpaceOnUse" x1="-2128.8369" y1="622.0765" x2="-2127.3022" y2="622.0765" gradientTransform="matrix(10.6688 -18.4789 18.4789 10.6688 11345.582 -45932.6875)">
					<stop  offset="0" style="stop-color:#000000"/>
					<stop  offset="8.507559e-002" style="stop-color:#0A0A0A"/>
					<stop  offset="0.2289" style="stop-color:#242424"/>
					<stop  offset="0.414" style="stop-color:#4F4F4F"/>
					<stop  offset="0.633" style="stop-color:#8B8B8B"/>
					<stop  offset="0.8779" style="stop-color:#D7D7D7"/>
					<stop  offset="1" style="stop-color:#FFFFFF"/>
				</linearGradient>
				<polygon clip-path="url(#SVGID_116_)" fill="url(#SVGID_118_)" points="149.7,96.7 189.3,28.1 111,-17.1 71.4,51.5 				"/>
			</g>
		</mask>
		
			<linearGradient id="SVGID_119_" gradientUnits="userSpaceOnUse" x1="-2128.8367" y1="622.0765" x2="-2127.3022" y2="622.0765" gradientTransform="matrix(10.6688 -18.4788 18.4788 10.6688 11345.583 -45932.6836)">
			<stop  offset="0" style="stop-color:#1DBCEE"/>
			<stop  offset="0.1782" style="stop-color:#3ABFEF"/>
			<stop  offset="0.4791" style="stop-color:#66C8F2"/>
			<stop  offset="0.8636" style="stop-color:#9AD9F7"/>
			<stop  offset="1" style="stop-color:#ADE1FA"/>
		</linearGradient>
		<polygon clip-path="url(#SVGID_116_)" mask="url(#SVGID_117_)" fill="url(#SVGID_119_)" points="149.7,96.7 189.3,28.1 111,-17.1 
			71.4,51.5 		"/>
	</g>
	<g>
		<defs>
			<path id="SVGID_486_" d="M58.9,90.3l55,46.5l33.5-28.3C120.3,83.8,90.6,61.8,58.9,43V90.3z"/>
		</defs>
		<clipPath id="SVGID_121_">
			<use xlink:href="#SVGID_486_"  overflow="visible"/>
		</clipPath>
		
			<radialGradient id="SVGID_122_" cx="-2236.4951" cy="536.286" r="1.5345" gradientTransform="matrix(-39.4438 0 0 -39.4438 -88092.5625 21229.7578)" gradientUnits="userSpaceOnUse">
			<stop  offset="0" style="stop-color:#1DBCEE"/>
			<stop  offset="0.5918" style="stop-color:#01679A"/>
			<stop  offset="1" style="stop-color:#1F3061"/>
		</radialGradient>
		<rect x="58.9" y="43" clip-path="url(#SVGID_121_)" fill="url(#SVGID_122_)" width="88.6" height="93.8"/>
	</g>
	<g>
		<path d="M320.3,108.8h-5.5l-3.3,14.3h-4.6l3.3-14.3h-5.5l0.8-3.4h15.6L320.3,108.8z"/>
		<path d="M331.3,113.9h-0.4c-0.2-0.1-0.5-0.1-0.8-0.1c-0.3,0-0.7,0-1,0c-0.6,0-1.1,0-1.6,0.1s-1.1,0.2-1.6,0.4l-2.1,8.9h-4.3
			l3.1-13.4h4.3l-0.5,2c0.8-0.6,1.6-1.1,2.4-1.5c0.8-0.4,1.6-0.6,2.4-0.6c0.2,0,0.3,0,0.5,0c0.2,0,0.3,0,0.5,0L331.3,113.9z"/>
		<path d="M348,109.8l-3.1,13.4h-4.3l0.3-1.5c-0.4,0.3-0.8,0.5-1.3,0.8c-0.4,0.2-0.8,0.4-1.2,0.6c-0.5,0.2-0.9,0.3-1.3,0.4
			c-0.4,0.1-0.8,0.1-1.1,0.1c-1.2,0-2.1-0.3-2.8-0.8c-0.7-0.6-1-1.4-1-2.5c0-0.3,0-0.6,0-0.8c0-0.3,0.1-0.5,0.2-0.9l2-8.7h4.3
			l-1.5,6.6c-0.1,0.5-0.2,0.9-0.3,1.3s-0.1,0.7-0.1,0.9c0,0.5,0.1,0.9,0.4,1.1c0.3,0.2,0.7,0.4,1.4,0.4c0.3,0,0.8-0.1,1.2-0.2
			c0.5-0.2,0.9-0.4,1.5-0.7l2.2-9.5H348z"/>
		<path d="M354.1,123.5c-1.1,0-2.2-0.1-3.3-0.3c-1.1-0.2-1.9-0.5-2.5-0.7l0.8-3.5h0.4c0.2,0.2,0.4,0.3,0.7,0.5
			c0.3,0.2,0.6,0.4,1.1,0.6c0.4,0.2,0.9,0.3,1.5,0.5c0.6,0.1,1.2,0.2,1.8,0.2c1,0,1.7-0.1,2.2-0.3c0.5-0.2,0.7-0.5,0.7-1
			c0-0.3-0.2-0.6-0.5-0.7c-0.3-0.2-1-0.4-2.1-0.6c-1.8-0.4-3.1-0.9-3.7-1.5c-0.7-0.6-1-1.3-1-2.2c0-1.5,0.7-2.7,2-3.6
			c1.3-0.9,3.2-1.3,5.5-1.3c1,0,2,0.1,3,0.3c1,0.2,1.7,0.4,2.2,0.6l-0.8,3.4h-0.4c-0.6-0.4-1.2-0.8-2-1.1c-0.8-0.3-1.6-0.4-2.5-0.4
			c-0.9,0-1.6,0.1-2.1,0.3c-0.5,0.2-0.7,0.6-0.7,1c0,0.3,0.2,0.6,0.6,0.8s1.1,0.4,2,0.6c1.7,0.4,2.9,0.8,3.6,1.4s1.1,1.3,1.1,2.3
			c0,1.5-0.7,2.7-2,3.5C358.2,123.1,356.4,123.5,354.1,123.5z"/>
		<path d="M368.5,123.4c-1.5,0-2.5-0.2-3.2-0.7s-1-1.2-1-2.2c0-0.3,0-0.5,0.1-0.7c0-0.2,0.1-0.5,0.2-0.8l1.5-6.3h-1.8l0.7-2.8h1.8
			l0.9-3.8h4.3l-0.9,3.8h4l-0.7,2.8h-4l-1.1,4.8c-0.1,0.3-0.2,0.7-0.2,1s-0.1,0.6-0.1,0.9c0,0.5,0.1,0.8,0.4,1
			c0.3,0.2,0.7,0.3,1.2,0.3c0.2,0,0.5,0,0.9-0.1c0.4-0.1,0.6-0.2,0.9-0.3h0.4l-0.7,2.9c-0.5,0.1-1,0.2-1.5,0.3
			C369.9,123.4,369.2,123.4,368.5,123.4z"/>
		<path d="M379.1,123.1h-4.5l1.1-4.7h4.5L379.1,123.1z"/>
		<path d="M400,123.5c-2.4,0-4.2-0.6-5.5-1.8s-2-2.9-2-5.1c0-1.7,0.3-3.3,0.9-4.7c0.6-1.4,1.4-2.6,2.4-3.7c1-1,2.2-1.8,3.5-2.3
			c1.4-0.6,2.8-0.8,4.3-0.8c1.2,0,2.4,0.1,3.4,0.4c1,0.3,2,0.6,2.8,1.1l-1,4.3h-0.5c-0.8-0.8-1.5-1.4-2.2-1.8s-1.6-0.6-2.6-0.6
			c-1.8,0-3.2,0.7-4.4,2.1c-1.1,1.4-1.7,3.2-1.7,5.4c0,1.4,0.3,2.4,1,3.1c0.6,0.6,1.6,1,2.8,1c1.1,0,2.1-0.2,3.1-0.7
			c1-0.4,1.9-1,2.7-1.7h0.5l-1,4.2c-0.4,0.1-0.8,0.3-1.2,0.5s-0.9,0.4-1.4,0.5c-0.6,0.2-1.1,0.3-1.6,0.4
			C401.6,123.4,400.9,123.5,400,123.5z"/>
		<path d="M417.6,121.7c-0.3,0.2-0.6,0.4-1,0.6s-0.7,0.4-1.1,0.6c-0.4,0.2-0.9,0.3-1.3,0.4c-0.4,0.1-0.9,0.1-1.6,0.1
			c-1.1,0-2-0.3-2.7-0.9c-0.7-0.6-1.1-1.4-1.1-2.4c0-1.1,0.3-2,0.7-2.7c0.5-0.7,1.2-1.3,2.2-1.8c0.9-0.4,2-0.7,3.3-0.9
			c1.3-0.2,2.6-0.3,4.1-0.4c0,0,0-0.1,0.1-0.2c0-0.1,0-0.2,0-0.4c0-0.6-0.3-1-0.8-1.2c-0.5-0.2-1.3-0.3-2.3-0.3
			c-0.7,0-1.5,0.1-2.3,0.4c-0.9,0.2-1.5,0.4-1.9,0.6h-0.4l0.6-3.2c0.5-0.1,1.3-0.3,2.3-0.4c1-0.2,2.1-0.2,3.1-0.2
			c2.1,0,3.6,0.3,4.6,0.8s1.5,1.4,1.5,2.5c0,0.2,0,0.4,0,0.6c0,0.3-0.1,0.5-0.1,0.7l-2.1,9.1h-4.3L417.6,121.7z M418.7,116.8
			c-0.8,0.1-1.5,0.1-2.2,0.2c-0.7,0.1-1.2,0.2-1.7,0.4c-0.5,0.2-0.9,0.4-1.1,0.7c-0.3,0.3-0.4,0.7-0.4,1.3c0,0.5,0.2,0.8,0.5,1
			c0.3,0.2,0.8,0.3,1.5,0.3c0.4,0,0.9-0.1,1.4-0.3c0.5-0.2,0.9-0.4,1.4-0.7L418.7,116.8z"/>
		<path d="M437.3,113.9h-0.4c-0.2-0.1-0.5-0.1-0.8-0.1c-0.3,0-0.7,0-1,0c-0.6,0-1.1,0-1.6,0.1s-1.1,0.2-1.6,0.4l-2.1,8.9h-4.3
			l3.1-13.4h4.3l-0.5,2c0.8-0.6,1.6-1.1,2.4-1.5c0.8-0.4,1.6-0.6,2.4-0.6c0.2,0,0.3,0,0.5,0c0.2,0,0.3,0,0.5,0L437.3,113.9z"/>
		<path d="M445.1,123.5c-2.3,0-4-0.5-5.3-1.5c-1.2-1-1.9-2.4-1.9-4.2c0-1.2,0.2-2.3,0.6-3.3c0.4-1,1-1.9,1.7-2.7
			c0.7-0.7,1.6-1.3,2.7-1.8c1.1-0.4,2.3-0.7,3.6-0.7c2,0,3.5,0.4,4.5,1.2c1,0.8,1.5,2,1.5,3.6c0,0.5-0.1,1.1-0.2,1.6
			c-0.1,0.5-0.2,1-0.4,1.5h-9.9c0,0,0,0.1,0,0.1c0,0,0,0.1,0,0.1c0,0.9,0.3,1.7,1,2.2c0.7,0.5,1.6,0.8,3,0.8c0.9,0,1.8-0.2,2.7-0.5
			c0.8-0.3,1.6-0.7,2.2-1.1h0.5l-0.8,3.4c-0.8,0.4-1.7,0.6-2.6,0.8C447.1,123.4,446.1,123.5,445.1,123.5z M448.4,114.7
			c0-0.1,0-0.3,0.1-0.4s0-0.2,0-0.4c0-0.6-0.2-1.1-0.6-1.4c-0.4-0.3-1-0.5-1.7-0.5c-0.9,0-1.6,0.2-2.2,0.7c-0.6,0.5-1.1,1.1-1.4,2
			H448.4z"/>
		<path d="M458.3,123.1h-4.5l1.1-4.7h4.5L458.3,123.1z"/>
		<path d="M488,105.4l-0.8,3.4h-8.3l-0.7,3.2h7.7l-0.8,3.4h-7.7l-1,4.5h8.2l-0.8,3.4h-12.8l4.1-17.7H488z"/>
		<path d="M492.7,116.3l-3.8-6.6h4.6l2.1,4.1l3.8-4.1h4.9l-6.8,6.7l3.8,6.7h-4.6l-2.1-4.1l-4,4.1h-4.9L492.7,116.3z"/>
		<path d="M510.6,123.5c-0.9,0-1.8-0.1-2.6-0.3c-0.8-0.2-1.5-0.6-2.1-1.1c-0.6-0.5-1-1.1-1.4-1.8s-0.5-1.5-0.5-2.5
			c0-1.2,0.2-2.3,0.7-3.3c0.5-1,1.1-1.9,1.9-2.7c0.8-0.8,1.8-1.4,3-1.8c1.2-0.4,2.4-0.7,3.8-0.7c0.8,0,1.6,0.1,2.4,0.3
			c0.8,0.2,1.6,0.4,2.2,0.8l-0.9,3.6h-0.6c-0.5-0.6-1-1-1.6-1.3c-0.6-0.3-1.3-0.4-2-0.4c-1.3,0-2.4,0.5-3.2,1.4
			c-0.8,1-1.2,2.1-1.2,3.6c0,1,0.3,1.7,0.8,2.2c0.5,0.5,1.3,0.7,2.3,0.7c0.8,0,1.6-0.2,2.3-0.5s1.3-0.7,1.7-1.1h0.6l-0.9,3.6
			c-0.9,0.4-1.6,0.6-2.3,0.8C512.5,123.4,511.7,123.5,510.6,123.5z"/>
		<path d="M525.6,123.5c-2.3,0-4-0.5-5.3-1.5c-1.2-1-1.9-2.4-1.9-4.2c0-1.2,0.2-2.3,0.6-3.3c0.4-1,1-1.9,1.7-2.7
			c0.7-0.7,1.6-1.3,2.7-1.8c1.1-0.4,2.3-0.7,3.6-0.7c2,0,3.5,0.4,4.5,1.2c1,0.8,1.5,2,1.5,3.6c0,0.5-0.1,1.1-0.2,1.6
			c-0.1,0.5-0.2,1-0.4,1.5h-9.9c0,0,0,0.1,0,0.1c0,0,0,0.1,0,0.1c0,0.9,0.3,1.7,1,2.2c0.7,0.5,1.6,0.8,3,0.8c0.9,0,1.8-0.2,2.7-0.5
			c0.8-0.3,1.6-0.7,2.2-1.1h0.5l-0.8,3.4c-0.8,0.4-1.7,0.6-2.6,0.8C527.6,123.4,526.6,123.5,525.6,123.5z M528.9,114.7
			c0-0.1,0-0.3,0.1-0.4s0-0.2,0-0.4c0-0.6-0.2-1.1-0.6-1.4c-0.4-0.3-1-0.5-1.7-0.5c-0.9,0-1.6,0.2-2.2,0.7c-0.6,0.5-1.1,1.1-1.4,2
			H528.9z"/>
		<path d="M542.8,104.6l-4.3,18.5h-4.3l4.3-18.5H542.8z"/>
		<path d="M551.1,104.6l-4.3,18.5h-4.3l4.3-18.5H551.1z"/>
		<path d="M558.4,123.5c-2.3,0-4-0.5-5.3-1.5c-1.2-1-1.9-2.4-1.9-4.2c0-1.2,0.2-2.3,0.6-3.3c0.4-1,1-1.9,1.7-2.7
			c0.7-0.7,1.6-1.3,2.7-1.8c1.1-0.4,2.3-0.7,3.6-0.7c2,0,3.5,0.4,4.5,1.2c1,0.8,1.5,2,1.5,3.6c0,0.5-0.1,1.1-0.2,1.6
			c-0.1,0.5-0.2,1-0.4,1.5h-9.9c0,0,0,0.1,0,0.1c0,0,0,0.1,0,0.1c0,0.9,0.3,1.7,1,2.2c0.7,0.5,1.6,0.8,3,0.8c0.9,0,1.8-0.2,2.7-0.5
			c0.8-0.3,1.6-0.7,2.2-1.1h0.5l-0.8,3.4c-0.8,0.4-1.7,0.6-2.6,0.8C560.4,123.4,559.5,123.5,558.4,123.5z M561.7,114.7
			c0-0.1,0-0.3,0.1-0.4s0-0.2,0-0.4c0-0.6-0.2-1.1-0.6-1.4c-0.4-0.3-1-0.5-1.7-0.5c-0.9,0-1.6,0.2-2.2,0.7c-0.6,0.5-1.1,1.1-1.4,2
			H561.7z"/>
		<path d="M582.7,112.8c0,0.2,0,0.5,0,0.8s-0.1,0.6-0.2,0.9l-2,8.7h-4.3l1.5-6.6c0.1-0.5,0.2-0.9,0.3-1.3c0.1-0.3,0.1-0.7,0.1-1
			c0-0.5-0.1-0.9-0.4-1.1s-0.7-0.4-1.4-0.4c-0.3,0-0.7,0.1-1.2,0.2c-0.4,0.1-0.9,0.4-1.5,0.7l-2.2,9.5h-4.3l3.1-13.4h4.3l-0.4,1.5
			c0.9-0.6,1.7-1,2.4-1.4c0.7-0.3,1.5-0.5,2.4-0.5c1.2,0,2.1,0.3,2.8,0.9C582.4,110.9,582.7,111.7,582.7,112.8z"/>
		<path d="M591.3,123.5c-0.9,0-1.8-0.1-2.6-0.3c-0.8-0.2-1.5-0.6-2.1-1.1c-0.6-0.5-1-1.1-1.4-1.8s-0.5-1.5-0.5-2.5
			c0-1.2,0.2-2.3,0.7-3.3c0.5-1,1.1-1.9,1.9-2.7c0.8-0.8,1.8-1.4,3-1.8c1.2-0.4,2.4-0.7,3.8-0.7c0.8,0,1.6,0.1,2.4,0.3
			c0.8,0.2,1.6,0.4,2.2,0.8l-0.9,3.6h-0.6c-0.5-0.6-1-1-1.6-1.3c-0.6-0.3-1.3-0.4-2-0.4c-1.3,0-2.4,0.5-3.2,1.4
			c-0.8,1-1.2,2.1-1.2,3.6c0,1,0.3,1.7,0.8,2.2c0.5,0.5,1.3,0.7,2.3,0.7c0.8,0,1.6-0.2,2.3-0.5s1.3-0.7,1.7-1.1h0.6l-0.9,3.6
			c-0.9,0.4-1.6,0.6-2.3,0.8C593.2,123.4,592.3,123.5,591.3,123.5z"/>
		<path d="M606.3,123.5c-2.3,0-4-0.5-5.3-1.5c-1.2-1-1.9-2.4-1.9-4.2c0-1.2,0.2-2.3,0.6-3.3c0.4-1,1-1.9,1.7-2.7
			c0.7-0.7,1.6-1.3,2.7-1.8c1.1-0.4,2.3-0.7,3.6-0.7c2,0,3.5,0.4,4.5,1.2c1,0.8,1.5,2,1.5,3.6c0,0.5-0.1,1.1-0.2,1.6
			c-0.1,0.5-0.2,1-0.4,1.5h-9.9c0,0,0,0.1,0,0.1c0,0,0,0.1,0,0.1c0,0.9,0.3,1.7,1,2.2c0.7,0.5,1.6,0.8,3,0.8c0.9,0,1.8-0.2,2.7-0.5
			c0.8-0.3,1.6-0.7,2.2-1.1h0.5l-0.8,3.4c-0.8,0.4-1.7,0.6-2.6,0.8C608.3,123.4,607.3,123.5,606.3,123.5z M609.5,114.7
			c0-0.1,0-0.3,0.1-0.4s0-0.2,0-0.4c0-0.6-0.2-1.1-0.6-1.4c-0.4-0.3-1-0.5-1.7-0.5c-0.9,0-1.6,0.2-2.2,0.7c-0.6,0.5-1.1,1.1-1.4,2
			H609.5z"/>
	</g>
</g>
</svg>
