<?xml version="1.0" encoding="utf-8"?>
<!-- Generator: Adobe Illustrator 18.1.1, SVG Export Plug-In . SVG Version: 6.00 Build 0)  -->
<!DOCTYPE svg PUBLIC "-//W3C//DTD SVG 1.1//EN" "http://www.w3.org/Graphics/SVG/1.1/DTD/svg11.dtd">
<svg version="1.1" id="Layer_1" xmlns="http://www.w3.org/2000/svg" xmlns:xlink="http://www.w3.org/1999/xlink" x="0px" y="0px"
	 viewBox="0 0 727.5 724.5" enable-background="new 0 0 727.5 724.5" xml:space="preserve">
<g>
	<text transform="matrix(1 0 0 1 515.8605 506.817)"><tspan x="0" y="0" fill="#0D1333" font-family="'Noah-Bold'" font-size="17.857">Pest </tspan><tspan x="-31.4" y="21.4" fill="#0D1333" font-family="'Noah-Bold'" font-size="17.857">Management</tspan></text>
	<circle fill="none" stroke="#02679A" stroke-miterlimit="10" cx="534.6" cy="511.8" r="55.7"/>
	<circle fill="none" stroke="#02679A" stroke-miterlimit="10" cx="534.6" cy="511.8" r="58"/>
	<text transform="matrix(1 0 0 1 502.9918 231.7086)"><tspan x="0" y="0" fill="#0D1333" font-family="'Noah-Bold'" font-size="17.857">Business </tspan><tspan x="0.7" y="21.4" fill="#0D1333" font-family="'Noah-Bold'" font-size="17.857">Support </tspan><tspan x="-1.2" y="42.9" fill="#0D1333" font-family="'Noah-Bold'" font-size="17.857">Solutions</tspan></text>
	<circle fill="none" stroke="#02679A" stroke-miterlimit="10" cx="534.6" cy="247.4" r="55.7"/>
	<circle fill="none" stroke="#02679A" stroke-miterlimit="10" cx="534.6" cy="247.4" r="58"/>
	<text transform="matrix(1 0 0 1 146.6116 514.1503)"><tspan x="0" y="0" fill="#0D1333" font-family="'Noah-Bold'" font-size="17.857">Security</tspan><tspan x="-18.6" y="21.4" fill="#0D1333" font-family="'Noah-Bold'" font-size="17.857">Management</tspan></text>
	<circle fill="none" stroke="#02679A" stroke-miterlimit="10" cx="178.1" cy="515.8" r="60.8"/>
	<circle fill="none" stroke="#02679A" stroke-miterlimit="10" cx="178.1" cy="515.8" r="63.3"/>
	<text transform="matrix(1 0 0 1 128.1746 231.7086)"><tspan x="0" y="0" fill="#0D1333" font-family="'Noah-Bold'" font-size="17.857">Hygiene and </tspan><tspan x="1.6" y="21.4" fill="#0D1333" font-family="'Noah-Bold'" font-size="17.857">Soft Service </tspan><tspan x="12.5" y="42.9" fill="#0D1333" font-family="'Noah-Bold'" font-size="17.857">Solutions </tspan></text>
	<circle fill="none" stroke="#02679A" stroke-miterlimit="10" cx="178.1" cy="242" r="60.8"/>
	<circle fill="none" stroke="#02679A" stroke-miterlimit="10" cx="178.1" cy="242" r="63.3"/>
	<text transform="matrix(1 0 0 1 320.0535 577.4615)"><tspan x="0" y="0" fill="#0D1333" font-family="'Noah-Bold'" font-size="17.857">Technical </tspan><tspan x="2.1" y="21.4" fill="#0D1333" font-family="'Noah-Bold'" font-size="17.857">Solutions</tspan></text>
	<circle fill="none" stroke="#02679A" stroke-miterlimit="10" cx="357.6" cy="579.1" r="64.6"/>
	<circle fill="none" stroke="#02679A" stroke-miterlimit="10" cx="357.6" cy="579.1" r="67.3"/>
	<text transform="matrix(1 0 0 1 312.9285 154.9451)"><tspan x="0" y="0" fill="#0D1333" font-family="'Noah-Bold'" font-size="17.857">Specialised </tspan><tspan x="14.7" y="21.4" fill="#0D1333" font-family="'Noah-Bold'" font-size="17.857">Service </tspan><tspan x="9.2" y="42.9" fill="#0D1333" font-family="'Noah-Bold'" font-size="17.857">Solutions</tspan></text>
	<circle fill="none" stroke="#02679A" stroke-miterlimit="10" cx="357.6" cy="169.9" r="64.6"/>
	<circle fill="none" stroke="#02679A" stroke-miterlimit="10" cx="357.6" cy="169.9" r="67.3"/>
	<g>
		<g>
			<defs>
				<rect id="SVGID_245_" x="315.4" y="360" width="2.6" height="9.3"/>
			</defs>
			<clipPath id="SVGID_2_">
				<use xlink:href="#SVGID_245_"  overflow="visible"/>
			</clipPath>
			
				<linearGradient id="SVGID_3_" gradientUnits="userSpaceOnUse" x1="-1394.1757" y1="791.8055" x2="-1393.7184" y2="791.8055" gradientTransform="matrix(0 -35.2817 -35.2817 0 28252.916 -48803.5117)">
				<stop  offset="0" style="stop-color:#1F3061"/>
				<stop  offset="1" style="stop-color:#01679A"/>
			</linearGradient>
			<rect x="315.4" y="360" clip-path="url(#SVGID_2_)" fill="url(#SVGID_3_)" width="2.6" height="9.3"/>
		</g>
		<g>
			<defs>
				<path id="SVGID_248_" d="M326,360v3.2c0,0.4,0,0.8,0.1,1.9l-3.9-5.1h-2.2v9.3h2.7v-3l0-2l3.9,5h2.2V360H326z"/>
			</defs>
			<clipPath id="SVGID_5_">
				<use xlink:href="#SVGID_248_"  overflow="visible"/>
			</clipPath>
			
				<linearGradient id="SVGID_6_" gradientUnits="userSpaceOnUse" x1="-1394.1757" y1="792.0599" x2="-1393.7184" y2="792.0599" gradientTransform="matrix(0 -35.2817 -35.2817 0 28269.457 -48803.5117)">
				<stop  offset="0" style="stop-color:#1F3061"/>
				<stop  offset="1" style="stop-color:#01679A"/>
			</linearGradient>
			<rect x="319.9" y="360" clip-path="url(#SVGID_5_)" fill="url(#SVGID_6_)" width="8.7" height="9.3"/>
		</g>
		<g>
			<defs>
				<polygon id="SVGID_251_" points="329.8,360 329.8,362.2 332.5,362.2 332.5,369.4 335.1,369.4 335.1,362.2 337.8,362.2 
					337.8,360 				"/>
			</defs>
			<clipPath id="SVGID_8_">
				<use xlink:href="#SVGID_251_"  overflow="visible"/>
			</clipPath>
			
				<linearGradient id="SVGID_9_" gradientUnits="userSpaceOnUse" x1="-1394.1757" y1="792.3807" x2="-1393.7184" y2="792.3807" gradientTransform="matrix(0 -35.2817 -35.2817 0 28290.3125 -48803.5117)">
				<stop  offset="0" style="stop-color:#1F3061"/>
				<stop  offset="1" style="stop-color:#01679A"/>
			</linearGradient>
			<rect x="329.8" y="360" clip-path="url(#SVGID_8_)" fill="url(#SVGID_9_)" width="8.1" height="9.3"/>
		</g>
		<g>
			<defs>
				<polygon id="SVGID_254_" points="339,360 339,369.4 346.4,369.4 346.4,367.1 341.6,367.1 341.6,365.7 346,365.7 346,363.6 
					341.6,363.6 341.6,362.3 346.2,362.3 346.2,360 				"/>
			</defs>
			<clipPath id="SVGID_11_">
				<use xlink:href="#SVGID_254_"  overflow="visible"/>
			</clipPath>
			
				<linearGradient id="SVGID_12_" gradientUnits="userSpaceOnUse" x1="-1394.1757" y1="792.6799" x2="-1393.7184" y2="792.6799" gradientTransform="matrix(0 -35.2817 -35.2817 0 28309.7578 -48803.5117)">
				<stop  offset="0" style="stop-color:#1F3061"/>
				<stop  offset="1" style="stop-color:#01679A"/>
			</linearGradient>
			<rect x="339" y="360" clip-path="url(#SVGID_11_)" fill="url(#SVGID_12_)" width="7.4" height="9.3"/>
		</g>
		<g>
			<defs>
				<path id="SVGID_257_" d="M347.3,364.7c0,2.4,1.4,4.9,5.1,4.9c1.8,0,3.4-0.6,4-1.8v-4.1h-4.5v2.1h2.4v1.2
					c-0.5,0.4-1.3,0.5-1.8,0.5c-1.9,0-2.5-1.5-2.5-2.7c0-1.8,1-2.7,2.5-2.7c0.6,0,1.4,0.2,2.1,0.8l1.5-1.5c-1.2-1.2-2.4-1.5-3.7-1.5
					C348.9,359.8,347.3,362.3,347.3,364.7"/>
			</defs>
			<clipPath id="SVGID_14_">
				<use xlink:href="#SVGID_257_"  overflow="visible"/>
			</clipPath>
			
				<linearGradient id="SVGID_15_" gradientUnits="userSpaceOnUse" x1="-1394.1757" y1="792.9873" x2="-1393.7184" y2="792.9873" gradientTransform="matrix(0 -35.2817 -35.2817 0 28329.7441 -48803.5117)">
				<stop  offset="0" style="stop-color:#1F3061"/>
				<stop  offset="1" style="stop-color:#01679A"/>
			</linearGradient>
			<rect x="347.3" y="359.8" clip-path="url(#SVGID_14_)" fill="url(#SVGID_15_)" width="9.1" height="9.8"/>
		</g>
		<g>
			<defs>
				<path id="SVGID_260_" d="M360.5,362.1h1.9c0.7,0,1,0.6,1,1.2c0,0.6-0.3,1.1-1,1.1h-1.9V362.1z M357.9,360v9.3h2.6v-3h0.9l2.2,3
					h2.9v-0.2l-2.4-3.1c1.6-0.7,2-1.7,2-2.8c0-1.7-1.2-3.2-3.6-3.2H357.9z"/>
			</defs>
			<clipPath id="SVGID_17_">
				<use xlink:href="#SVGID_260_"  overflow="visible"/>
			</clipPath>
			
				<linearGradient id="SVGID_18_" gradientUnits="userSpaceOnUse" x1="-1394.1757" y1="793.335" x2="-1393.7184" y2="793.335" gradientTransform="matrix(0 -35.2817 -35.2817 0 28352.3457 -48803.5117)">
				<stop  offset="0" style="stop-color:#1F3061"/>
				<stop  offset="1" style="stop-color:#01679A"/>
			</linearGradient>
			<rect x="357.9" y="360" clip-path="url(#SVGID_17_)" fill="url(#SVGID_18_)" width="8.6" height="9.3"/>
		</g>
		<g>
			<defs>
				<path id="SVGID_263_" d="M372,362.7l1.2,3h-2.4L372,362.7z M370.7,360l-4.2,9.3h2.8l0.6-1.5h4.2l0.6,1.5h2.8l-4.2-9.3H370.7z"/>
			</defs>
			<clipPath id="SVGID_20_">
				<use xlink:href="#SVGID_263_"  overflow="visible"/>
			</clipPath>
			
				<linearGradient id="SVGID_21_" gradientUnits="userSpaceOnUse" x1="-1394.1757" y1="793.666" x2="-1393.7184" y2="793.666" gradientTransform="matrix(0 -35.2817 -35.2817 0 28373.8691 -48803.5117)">
				<stop  offset="0" style="stop-color:#1F3061"/>
				<stop  offset="1" style="stop-color:#01679A"/>
			</linearGradient>
			<rect x="366.5" y="360" clip-path="url(#SVGID_20_)" fill="url(#SVGID_21_)" width="11" height="9.3"/>
		</g>
		<g>
			<defs>
				<polygon id="SVGID_266_" points="376.7,360 376.7,362.2 379.4,362.2 379.4,369.4 382,369.4 382,362.2 384.7,362.2 384.7,360 
									"/>
			</defs>
			<clipPath id="SVGID_23_">
				<use xlink:href="#SVGID_266_"  overflow="visible"/>
			</clipPath>
			
				<linearGradient id="SVGID_24_" gradientUnits="userSpaceOnUse" x1="-1394.1757" y1="793.9578" x2="-1393.7184" y2="793.9578" gradientTransform="matrix(0 -35.2817 -35.2817 0 28392.8359 -48803.5117)">
				<stop  offset="0" style="stop-color:#1F3061"/>
				<stop  offset="1" style="stop-color:#01679A"/>
			</linearGradient>
			<rect x="376.7" y="360" clip-path="url(#SVGID_23_)" fill="url(#SVGID_24_)" width="8.1" height="9.3"/>
		</g>
		<g>
			<defs>
				<polygon id="SVGID_269_" points="385.9,360 385.9,369.4 393.3,369.4 393.3,367.1 388.5,367.1 388.5,365.7 392.9,365.7 
					392.9,363.6 388.5,363.6 388.5,362.3 393.1,362.3 393.1,360 				"/>
			</defs>
			<clipPath id="SVGID_26_">
				<use xlink:href="#SVGID_269_"  overflow="visible"/>
			</clipPath>
			
				<linearGradient id="SVGID_27_" gradientUnits="userSpaceOnUse" x1="-1394.1757" y1="794.2569" x2="-1393.7184" y2="794.2569" gradientTransform="matrix(0 -35.2817 -35.2817 0 28412.2832 -48803.5117)">
				<stop  offset="0" style="stop-color:#1F3061"/>
				<stop  offset="1" style="stop-color:#01679A"/>
			</linearGradient>
			<rect x="385.9" y="360" clip-path="url(#SVGID_26_)" fill="url(#SVGID_27_)" width="7.4" height="9.3"/>
		</g>
		<g>
			<defs>
				<path id="SVGID_272_" d="M397.4,362.2h1.4c1.6,0,2.3,1.1,2.3,2.4c0,1.3-0.6,2.5-2.3,2.5h-1.4V362.2z M394.8,360v9.3h4
					c3.3,0,4.9-2.2,4.9-4.7c0-2.6-1.6-4.6-4.9-4.6H394.8z"/>
			</defs>
			<clipPath id="SVGID_29_">
				<use xlink:href="#SVGID_272_"  overflow="visible"/>
			</clipPath>
			
				<linearGradient id="SVGID_30_" gradientUnits="userSpaceOnUse" x1="-1394.1757" y1="794.5811" x2="-1393.7184" y2="794.5811" gradientTransform="matrix(0 -35.2817 -35.2817 0 28433.3574 -48803.5117)">
				<stop  offset="0" style="stop-color:#1F3061"/>
				<stop  offset="1" style="stop-color:#01679A"/>
			</linearGradient>
			<rect x="394.8" y="360" clip-path="url(#SVGID_29_)" fill="url(#SVGID_30_)" width="8.9" height="9.3"/>
		</g>
		<g>
			<defs>
				<polygon id="SVGID_275_" points="408.1,360 408.1,369.4 410.7,369.4 410.7,366.2 414.9,366.2 414.9,364 410.7,364 410.7,362.3 
					415.2,362.3 415.2,360 				"/>
			</defs>
			<clipPath id="SVGID_32_">
				<use xlink:href="#SVGID_275_"  overflow="visible"/>
			</clipPath>
			
				<linearGradient id="SVGID_33_" gradientUnits="userSpaceOnUse" x1="-1394.1757" y1="794.9985" x2="-1393.7184" y2="794.9985" gradientTransform="matrix(0 -35.2817 -35.2817 0 28460.4922 -48803.5117)">
				<stop  offset="0" style="stop-color:#1F3061"/>
				<stop  offset="1" style="stop-color:#01679A"/>
			</linearGradient>
			<rect x="408.1" y="360" clip-path="url(#SVGID_32_)" fill="url(#SVGID_33_)" width="7.1" height="9.3"/>
		</g>
		<g>
			<defs>
				<path id="SVGID_278_" d="M420.4,362.7l1.2,3h-2.4L420.4,362.7z M419.1,360l-4.2,9.3h2.8l0.6-1.5h4.2l0.6,1.5h2.8l-4.2-9.3H419.1
					z"/>
			</defs>
			<clipPath id="SVGID_35_">
				<use xlink:href="#SVGID_278_"  overflow="visible"/>
			</clipPath>
			
				<linearGradient id="SVGID_36_" gradientUnits="userSpaceOnUse" x1="-1394.1757" y1="795.2936" x2="-1393.7184" y2="795.2936" gradientTransform="matrix(0 -35.2817 -35.2817 0 28479.6777 -48803.5117)">
				<stop  offset="0" style="stop-color:#1F3061"/>
				<stop  offset="1" style="stop-color:#01679A"/>
			</linearGradient>
			<rect x="414.9" y="360" clip-path="url(#SVGID_35_)" fill="url(#SVGID_36_)" width="11" height="9.3"/>
		</g>
		<g>
			<defs>
				<path id="SVGID_281_" d="M425.8,364.8c0,2.5,1.4,4.8,5.1,4.8c1.4,0,2.7-0.4,3.7-1.4l-1.5-1.7c-0.7,0.7-1.6,0.9-2.2,0.9
					c-1.8,0-2.5-1.4-2.5-2.6c0-1.2,0.7-2.7,2.5-2.7c0.6,0,1.3,0.2,2,0.8l1.6-1.6c-1.1-1-2.3-1.5-3.6-1.5
					C427.4,359.8,425.8,362.4,425.8,364.8"/>
			</defs>
			<clipPath id="SVGID_38_">
				<use xlink:href="#SVGID_281_"  overflow="visible"/>
			</clipPath>
			
				<linearGradient id="SVGID_39_" gradientUnits="userSpaceOnUse" x1="-1394.1757" y1="795.6249" x2="-1393.7184" y2="795.6249" gradientTransform="matrix(0 -35.2817 -35.2817 0 28501.2012 -48803.5117)">
				<stop  offset="0" style="stop-color:#1F3061"/>
				<stop  offset="1" style="stop-color:#01679A"/>
			</linearGradient>
			<rect x="425.8" y="359.8" clip-path="url(#SVGID_38_)" fill="url(#SVGID_39_)" width="8.8" height="9.8"/>
		</g>
		<g>
			<defs>
				<rect id="SVGID_284_" x="435.7" y="360" width="2.6" height="9.3"/>
			</defs>
			<clipPath id="SVGID_41_">
				<use xlink:href="#SVGID_284_"  overflow="visible"/>
			</clipPath>
			
				<linearGradient id="SVGID_42_" gradientUnits="userSpaceOnUse" x1="-1394.1757" y1="795.8534" x2="-1393.7184" y2="795.8534" gradientTransform="matrix(0 -35.2817 -35.2817 0 28516.0664 -48803.5117)">
				<stop  offset="0" style="stop-color:#1F3061"/>
				<stop  offset="1" style="stop-color:#01679A"/>
			</linearGradient>
			<rect x="435.7" y="360" clip-path="url(#SVGID_41_)" fill="url(#SVGID_42_)" width="2.6" height="9.3"/>
		</g>
		<g>
			<defs>
				<polygon id="SVGID_287_" points="440.2,360 440.2,369.4 447.3,369.4 447.3,367.1 442.9,367.1 442.9,360 				"/>
			</defs>
			<clipPath id="SVGID_44_">
				<use xlink:href="#SVGID_287_"  overflow="visible"/>
			</clipPath>
			
				<linearGradient id="SVGID_45_" gradientUnits="userSpaceOnUse" x1="-1394.1757" y1="796.0801" x2="-1393.7184" y2="796.0801" gradientTransform="matrix(0 -35.2817 -35.2817 0 28530.8066 -48803.5117)">
				<stop  offset="0" style="stop-color:#1F3061"/>
				<stop  offset="1" style="stop-color:#01679A"/>
			</linearGradient>
			<rect x="440.2" y="360" clip-path="url(#SVGID_44_)" fill="url(#SVGID_45_)" width="7.1" height="9.3"/>
		</g>
		<g>
			<defs>
				<rect id="SVGID_290_" x="448.5" y="360" width="2.6" height="9.3"/>
			</defs>
			<clipPath id="SVGID_47_">
				<use xlink:href="#SVGID_290_"  overflow="visible"/>
			</clipPath>
			
				<linearGradient id="SVGID_48_" gradientUnits="userSpaceOnUse" x1="-1394.1757" y1="796.2822" x2="-1393.7184" y2="796.2822" gradientTransform="matrix(0 -35.2817 -35.2817 0 28543.9434 -48803.5117)">
				<stop  offset="0" style="stop-color:#1F3061"/>
				<stop  offset="1" style="stop-color:#01679A"/>
			</linearGradient>
			<rect x="448.5" y="360" clip-path="url(#SVGID_47_)" fill="url(#SVGID_48_)" width="2.6" height="9.3"/>
		</g>
		<g>
			<defs>
				<polygon id="SVGID_293_" points="452.2,360 452.2,362.2 455,362.2 455,369.4 457.6,369.4 457.6,362.2 460.3,362.2 460.3,360 
									"/>
			</defs>
			<clipPath id="SVGID_50_">
				<use xlink:href="#SVGID_293_"  overflow="visible"/>
			</clipPath>
			
				<linearGradient id="SVGID_51_" gradientUnits="userSpaceOnUse" x1="-1394.1757" y1="796.5002" x2="-1393.7184" y2="796.5002" gradientTransform="matrix(0 -35.2817 -35.2817 0 28558.1152 -48803.5117)">
				<stop  offset="0" style="stop-color:#1F3061"/>
				<stop  offset="1" style="stop-color:#01679A"/>
			</linearGradient>
			<rect x="452.2" y="360" clip-path="url(#SVGID_50_)" fill="url(#SVGID_51_)" width="8.1" height="9.3"/>
		</g>
		<g>
			<defs>
				<polygon id="SVGID_296_" points="467.3,360 465.3,363.2 463.4,360 460.4,360 460.4,360.2 464,365.6 464,369.4 466.6,369.4 
					466.6,365.6 470.3,360.2 470.3,360 				"/>
			</defs>
			<clipPath id="SVGID_53_">
				<use xlink:href="#SVGID_296_"  overflow="visible"/>
			</clipPath>
			
				<linearGradient id="SVGID_54_" gradientUnits="userSpaceOnUse" x1="-1394.1757" y1="796.8055" x2="-1393.7184" y2="796.8055" gradientTransform="matrix(0 -35.2817 -35.2817 0 28577.9688 -48803.5117)">
				<stop  offset="0" style="stop-color:#1F3061"/>
				<stop  offset="1" style="stop-color:#01679A"/>
			</linearGradient>
			<rect x="460.4" y="360" clip-path="url(#SVGID_53_)" fill="url(#SVGID_54_)" width="9.9" height="9.3"/>
		</g>
		<g>
			<defs>
				<polygon id="SVGID_299_" points="322,372 319.8,374.7 317.7,372 315.3,372 315.3,380.1 317.6,380.1 317.6,375.3 319.6,377.8 
					320,377.8 322.1,375.3 322.1,380.1 324.4,380.1 324.4,372 				"/>
			</defs>
			<clipPath id="SVGID_56_">
				<use xlink:href="#SVGID_299_"  overflow="visible"/>
			</clipPath>
			
				<linearGradient id="SVGID_57_" gradientUnits="userSpaceOnUse" x1="-1394.1757" y1="791.9111" x2="-1393.7184" y2="791.9111" gradientTransform="matrix(0 -35.2817 -35.2817 0 28259.7813 -48803.5117)">
				<stop  offset="0" style="stop-color:#1F3061"/>
				<stop  offset="1" style="stop-color:#01679A"/>
			</linearGradient>
			<rect x="315.3" y="372" clip-path="url(#SVGID_56_)" fill="url(#SVGID_57_)" width="9.1" height="8.2"/>
		</g>
		<g>
			<defs>
				<path id="SVGID_302_" d="M329.9,374.3l1,2.6h-2.1L329.9,374.3z M328.7,372l-3.7,8.2h2.5l0.5-1.3h3.7l0.5,1.3h2.5l-3.7-8.2H328.7
					z"/>
			</defs>
			<clipPath id="SVGID_59_">
				<use xlink:href="#SVGID_302_"  overflow="visible"/>
			</clipPath>
			
				<linearGradient id="SVGID_60_" gradientUnits="userSpaceOnUse" x1="-1394.1757" y1="792.249" x2="-1393.7184" y2="792.249" gradientTransform="matrix(0 -35.2817 -35.2817 0 28281.7461 -48803.5117)">
				<stop  offset="0" style="stop-color:#1F3061"/>
				<stop  offset="1" style="stop-color:#01679A"/>
			</linearGradient>
			<rect x="325.1" y="372" clip-path="url(#SVGID_59_)" fill="url(#SVGID_60_)" width="9.7" height="8.2"/>
		</g>
		<g>
			<defs>
				<path id="SVGID_305_" d="M340.7,372v2.8c0,0.3,0,0.7,0.1,1.7l-3.5-4.5h-2v8.2h2.3v-2.6l0-1.8l3.4,4.4h2V372H340.7z"/>
			</defs>
			<clipPath id="SVGID_62_">
				<use xlink:href="#SVGID_305_"  overflow="visible"/>
			</clipPath>
			
				<linearGradient id="SVGID_63_" gradientUnits="userSpaceOnUse" x1="-1394.1757" y1="792.5625" x2="-1393.7184" y2="792.5625" gradientTransform="matrix(0 -35.2817 -35.2817 0 28302.1289 -48803.5117)">
				<stop  offset="0" style="stop-color:#1F3061"/>
				<stop  offset="1" style="stop-color:#01679A"/>
			</linearGradient>
			<rect x="335.4" y="372" clip-path="url(#SVGID_62_)" fill="url(#SVGID_63_)" width="7.7" height="8.2"/>
		</g>
		<g>
			<defs>
				<path id="SVGID_308_" d="M348.5,374.3l1,2.6h-2.1L348.5,374.3z M347.4,372l-3.7,8.2h2.5l0.5-1.3h3.7l0.5,1.3h2.5l-3.7-8.2H347.4
					z"/>
			</defs>
			<clipPath id="SVGID_65_">
				<use xlink:href="#SVGID_308_"  overflow="visible"/>
			</clipPath>
			
				<linearGradient id="SVGID_66_" gradientUnits="userSpaceOnUse" x1="-1394.1757" y1="792.876" x2="-1393.7184" y2="792.876" gradientTransform="matrix(0 -35.2817 -35.2817 0 28322.5098 -48803.5117)">
				<stop  offset="0" style="stop-color:#1F3061"/>
				<stop  offset="1" style="stop-color:#01679A"/>
			</linearGradient>
			<rect x="343.7" y="372" clip-path="url(#SVGID_65_)" fill="url(#SVGID_66_)" width="9.7" height="8.2"/>
		</g>
		<g>
			<defs>
				<path id="SVGID_311_" d="M353.3,376.1c0,2.1,1.2,4.3,4.5,4.3c1.6,0,3-0.6,3.5-1.6v-3.6h-4v1.8h2.1v1.1c-0.5,0.3-1.1,0.4-1.6,0.4
					c-1.6,0-2.2-1.3-2.2-2.3c0-1.6,0.9-2.4,2.2-2.4c0.5,0,1.3,0.2,1.9,0.7l1.3-1.3c-1.1-1.1-2.1-1.3-3.2-1.3
					C354.7,371.7,353.3,373.9,353.3,376.1"/>
			</defs>
			<clipPath id="SVGID_68_">
				<use xlink:href="#SVGID_311_"  overflow="visible"/>
			</clipPath>
			
				<linearGradient id="SVGID_69_" gradientUnits="userSpaceOnUse" x1="-1394.1757" y1="793.1703" x2="-1393.7184" y2="793.1703" gradientTransform="matrix(0 -35.2817 -35.2817 0 28341.6426 -48803.5117)">
				<stop  offset="0" style="stop-color:#1F3061"/>
				<stop  offset="1" style="stop-color:#01679A"/>
			</linearGradient>
			<rect x="353.3" y="371.7" clip-path="url(#SVGID_68_)" fill="url(#SVGID_69_)" width="8" height="8.6"/>
		</g>
		<g>
			<defs>
				<polygon id="SVGID_314_" points="362.6,372 362.6,380.1 369.1,380.1 369.1,378.2 364.9,378.2 364.9,377 368.7,377 368.7,375.1 
					364.9,375.1 364.9,373.9 369,373.9 369,372 				"/>
			</defs>
			<clipPath id="SVGID_71_">
				<use xlink:href="#SVGID_314_"  overflow="visible"/>
			</clipPath>
			
				<linearGradient id="SVGID_72_" gradientUnits="userSpaceOnUse" x1="-1394.1757" y1="793.4585" x2="-1393.7184" y2="793.4585" gradientTransform="matrix(0 -35.2817 -35.2817 0 28360.377 -48803.5117)">
				<stop  offset="0" style="stop-color:#1F3061"/>
				<stop  offset="1" style="stop-color:#01679A"/>
			</linearGradient>
			<rect x="362.6" y="372" clip-path="url(#SVGID_71_)" fill="url(#SVGID_72_)" width="6.5" height="8.2"/>
		</g>
		<g>
			<defs>
				<polygon id="SVGID_317_" points="377.1,372 375,374.7 372.8,372 370.4,372 370.4,380.1 372.7,380.1 372.7,375.3 374.8,377.8 
					375.2,377.8 377.3,375.3 377.3,380.1 379.5,380.1 379.5,372 				"/>
			</defs>
			<clipPath id="SVGID_74_">
				<use xlink:href="#SVGID_317_"  overflow="visible"/>
			</clipPath>
			
				<linearGradient id="SVGID_75_" gradientUnits="userSpaceOnUse" x1="-1394.1757" y1="793.766" x2="-1393.7184" y2="793.766" gradientTransform="matrix(0 -35.2817 -35.2817 0 28380.3652 -48803.5117)">
				<stop  offset="0" style="stop-color:#1F3061"/>
				<stop  offset="1" style="stop-color:#01679A"/>
			</linearGradient>
			<rect x="370.4" y="372" clip-path="url(#SVGID_74_)" fill="url(#SVGID_75_)" width="9.1" height="8.2"/>
		</g>
		<g>
			<defs>
				<polygon id="SVGID_320_" points="381.2,372 381.2,380.1 387.7,380.1 387.7,378.2 383.5,378.2 383.5,377 387.4,377 387.4,375.1 
					383.5,375.1 383.5,373.9 387.6,373.9 387.6,372 				"/>
			</defs>
			<clipPath id="SVGID_77_">
				<use xlink:href="#SVGID_320_"  overflow="visible"/>
			</clipPath>
			
				<linearGradient id="SVGID_78_" gradientUnits="userSpaceOnUse" x1="-1394.1757" y1="794.0852" x2="-1393.7184" y2="794.0852" gradientTransform="matrix(0 -35.2817 -35.2817 0 28401.1172 -48803.5117)">
				<stop  offset="0" style="stop-color:#1F3061"/>
				<stop  offset="1" style="stop-color:#01679A"/>
			</linearGradient>
			<rect x="381.2" y="372" clip-path="url(#SVGID_77_)" fill="url(#SVGID_78_)" width="6.5" height="8.2"/>
		</g>
		<g>
			<defs>
				<path id="SVGID_323_" d="M394.4,372v2.8c0,0.3,0,0.7,0.1,1.7L391,372h-2v8.2h2.3v-2.6l0-1.8l3.4,4.4h2V372H394.4z"/>
			</defs>
			<clipPath id="SVGID_80_">
				<use xlink:href="#SVGID_323_"  overflow="visible"/>
			</clipPath>
			
				<linearGradient id="SVGID_81_" gradientUnits="userSpaceOnUse" x1="-1394.1757" y1="794.3683" x2="-1393.7184" y2="794.3683" gradientTransform="matrix(0 -35.2817 -35.2817 0 28419.5195 -48803.5117)">
				<stop  offset="0" style="stop-color:#1F3061"/>
				<stop  offset="1" style="stop-color:#01679A"/>
			</linearGradient>
			<rect x="389.1" y="372" clip-path="url(#SVGID_80_)" fill="url(#SVGID_81_)" width="7.7" height="8.2"/>
		</g>
		<g>
			<defs>
				<polygon id="SVGID_326_" points="397.7,372 397.7,373.9 400.1,373.9 400.1,380.1 402.4,380.1 402.4,373.9 404.8,373.9 
					404.8,372 				"/>
			</defs>
			<clipPath id="SVGID_83_">
				<use xlink:href="#SVGID_326_"  overflow="visible"/>
			</clipPath>
			
				<linearGradient id="SVGID_84_" gradientUnits="userSpaceOnUse" x1="-1394.1757" y1="794.6501" x2="-1393.7184" y2="794.6501" gradientTransform="matrix(0 -35.2817 -35.2817 0 28437.8477 -48803.5117)">
				<stop  offset="0" style="stop-color:#1F3061"/>
				<stop  offset="1" style="stop-color:#01679A"/>
			</linearGradient>
			<rect x="397.7" y="372" clip-path="url(#SVGID_83_)" fill="url(#SVGID_84_)" width="7.1" height="8.2"/>
		</g>
		<g>
			<defs>
				<path id="SVGID_329_" d="M407.9,374.3c0,2,1.5,2.5,3.3,2.7c0.9,0.1,1.4,0.3,1.4,0.7c0,0.5-0.5,0.7-1.3,0.7
					c-0.7,0-1.6-0.1-2.4-0.9l-1.3,1.5c1.1,1.2,2.2,1.4,3.7,1.4c1.8,0,3.6-0.8,3.6-2.7c0-1.9-1.7-2.5-3.3-2.7
					c-0.8-0.1-1.4-0.2-1.4-0.7c0-0.4,0.5-0.6,1.1-0.6c0.7,0,1.4,0.1,1.9,0.6l1.1-1.5c-0.9-0.7-1.8-1-3.1-1
					C409.6,371.8,407.9,372.6,407.9,374.3"/>
			</defs>
			<clipPath id="SVGID_86_">
				<use xlink:href="#SVGID_329_"  overflow="visible"/>
			</clipPath>
			
				<linearGradient id="SVGID_87_" gradientUnits="userSpaceOnUse" x1="-1394.1757" y1="794.9849" x2="-1393.7184" y2="794.9849" gradientTransform="matrix(0 -35.2817 -35.2817 0 28459.6074 -48803.5117)">
				<stop  offset="0" style="stop-color:#1F3061"/>
				<stop  offset="1" style="stop-color:#01679A"/>
			</linearGradient>
			<rect x="407.6" y="371.8" clip-path="url(#SVGID_86_)" fill="url(#SVGID_87_)" width="7.2" height="8.6"/>
		</g>
		<g>
			<defs>
				<polygon id="SVGID_332_" points="415.9,372 415.9,380.1 422.5,380.1 422.5,378.2 418.2,378.2 418.2,377 422.1,377 422.1,375.1 
					418.2,375.1 418.2,373.9 422.3,373.9 422.3,372 				"/>
			</defs>
			<clipPath id="SVGID_89_">
				<use xlink:href="#SVGID_332_"  overflow="visible"/>
			</clipPath>
			
				<linearGradient id="SVGID_90_" gradientUnits="userSpaceOnUse" x1="-1394.1757" y1="795.2537" x2="-1393.7184" y2="795.2537" gradientTransform="matrix(0 -35.2817 -35.2817 0 28477.0801 -48803.5117)">
				<stop  offset="0" style="stop-color:#1F3061"/>
				<stop  offset="1" style="stop-color:#01679A"/>
			</linearGradient>
			<rect x="415.9" y="372" clip-path="url(#SVGID_89_)" fill="url(#SVGID_90_)" width="6.5" height="8.2"/>
		</g>
		<g>
			<defs>
				<path id="SVGID_335_" d="M426.1,373.8h1.7c0.6,0,0.9,0.5,0.9,1c0,0.5-0.3,0.9-0.9,0.9h-1.7V373.8z M423.8,372v8.2h2.3v-2.7h0.8
					l1.9,2.7h2.5V380l-2.1-2.8c1.4-0.6,1.7-1.5,1.7-2.5c0-1.5-1.1-2.8-3.2-2.8H423.8z"/>
			</defs>
			<clipPath id="SVGID_92_">
				<use xlink:href="#SVGID_335_"  overflow="visible"/>
			</clipPath>
			
				<linearGradient id="SVGID_93_" gradientUnits="userSpaceOnUse" x1="-1394.1757" y1="795.535" x2="-1393.7184" y2="795.535" gradientTransform="matrix(0 -35.2817 -35.2817 0 28495.3691 -48803.5117)">
				<stop  offset="0" style="stop-color:#1F3061"/>
				<stop  offset="1" style="stop-color:#01679A"/>
			</linearGradient>
			<rect x="423.8" y="372" clip-path="url(#SVGID_92_)" fill="url(#SVGID_93_)" width="7.6" height="8.2"/>
		</g>
		<g>
			<defs>
				<polygon id="SVGID_338_" points="437.7,372 436.7,374.4 435.7,377.4 434.7,374.4 433.7,372 431.2,372 434.6,380.2 436.8,380.2 
					440.2,372 				"/>
			</defs>
			<clipPath id="SVGID_95_">
				<use xlink:href="#SVGID_338_"  overflow="visible"/>
			</clipPath>
			
				<linearGradient id="SVGID_96_" gradientUnits="userSpaceOnUse" x1="-1394.1757" y1="795.8086" x2="-1393.7184" y2="795.8086" gradientTransform="matrix(0 -35.2817 -35.2817 0 28513.1582 -48803.5117)">
				<stop  offset="0" style="stop-color:#1F3061"/>
				<stop  offset="1" style="stop-color:#01679A"/>
			</linearGradient>
			<rect x="431.2" y="372" clip-path="url(#SVGID_95_)" fill="url(#SVGID_96_)" width="9.1" height="8.2"/>
		</g>
		<g>
			<defs>
				<rect id="SVGID_341_" x="440.9" y="372" width="2.3" height="8.2"/>
			</defs>
			<clipPath id="SVGID_98_">
				<use xlink:href="#SVGID_341_"  overflow="visible"/>
			</clipPath>
			
				<linearGradient id="SVGID_99_" gradientUnits="userSpaceOnUse" x1="-1394.1757" y1="796.0223" x2="-1393.7184" y2="796.0223" gradientTransform="matrix(0 -35.2817 -35.2817 0 28527.0508 -48803.5117)">
				<stop  offset="0" style="stop-color:#1F3061"/>
				<stop  offset="1" style="stop-color:#01679A"/>
			</linearGradient>
			<rect x="440.9" y="372" clip-path="url(#SVGID_98_)" fill="url(#SVGID_99_)" width="2.3" height="8.2"/>
		</g>
		<g>
			<defs>
				<path id="SVGID_344_" d="M444.4,376.1c0,2.2,1.3,4.2,4.5,4.2c1.2,0,2.4-0.4,3.3-1.3l-1.4-1.5c-0.6,0.6-1.4,0.8-1.9,0.8
					c-1.6,0-2.2-1.2-2.2-2.3c0-1.1,0.6-2.3,2.2-2.3c0.6,0,1.2,0.2,1.7,0.7l1.4-1.4c-0.9-0.9-2-1.3-3.2-1.3
					C445.8,371.8,444.4,374,444.4,376.1"/>
			</defs>
			<clipPath id="SVGID_101_">
				<use xlink:href="#SVGID_344_"  overflow="visible"/>
			</clipPath>
			
				<linearGradient id="SVGID_102_" gradientUnits="userSpaceOnUse" x1="-1394.1757" y1="796.2325" x2="-1393.7184" y2="796.2325" gradientTransform="matrix(0 -35.2817 -35.2817 0 28540.7051 -48803.5117)">
				<stop  offset="0" style="stop-color:#1F3061"/>
				<stop  offset="1" style="stop-color:#01679A"/>
			</linearGradient>
			<rect x="444.4" y="371.8" clip-path="url(#SVGID_101_)" fill="url(#SVGID_102_)" width="7.8" height="8.6"/>
		</g>
		<g>
			<defs>
				<polygon id="SVGID_347_" points="453.1,372 453.1,380.1 459.7,380.1 459.7,378.2 455.4,378.2 455.4,377 459.3,377 459.3,375.1 
					455.4,375.1 455.4,373.9 459.5,373.9 459.5,372 				"/>
			</defs>
			<clipPath id="SVGID_104_">
				<use xlink:href="#SVGID_347_"  overflow="visible"/>
			</clipPath>
			
				<linearGradient id="SVGID_105_" gradientUnits="userSpaceOnUse" x1="-1394.1757" y1="796.5046" x2="-1393.7184" y2="796.5046" gradientTransform="matrix(0 -35.2817 -35.2817 0 28558.4043 -48803.5117)">
				<stop  offset="0" style="stop-color:#1F3061"/>
				<stop  offset="1" style="stop-color:#01679A"/>
			</linearGradient>
			<rect x="453.1" y="372" clip-path="url(#SVGID_104_)" fill="url(#SVGID_105_)" width="6.5" height="8.2"/>
		</g>
		<g>
			<defs>
				<path id="SVGID_350_" d="M460.7,374.3c0,2,1.5,2.5,3.3,2.7c0.9,0.1,1.4,0.3,1.4,0.7c0,0.5-0.5,0.7-1.3,0.7
					c-0.7,0-1.6-0.1-2.4-0.9l-1.3,1.5c1.1,1.2,2.2,1.4,3.7,1.4c1.8,0,3.6-0.8,3.6-2.7c0-1.9-1.7-2.5-3.3-2.7
					c-0.8-0.1-1.4-0.2-1.4-0.7c0-0.4,0.5-0.6,1.1-0.6c0.7,0,1.4,0.1,1.9,0.6l1.1-1.5c-0.9-0.7-1.8-1-3.1-1
					C462.4,371.8,460.7,372.6,460.7,374.3"/>
			</defs>
			<clipPath id="SVGID_107_">
				<use xlink:href="#SVGID_350_"  overflow="visible"/>
			</clipPath>
			
				<linearGradient id="SVGID_108_" gradientUnits="userSpaceOnUse" x1="-1394.1757" y1="796.7616" x2="-1393.7184" y2="796.7616" gradientTransform="matrix(0 -35.2817 -35.2817 0 28575.1113 -48803.5117)">
				<stop  offset="0" style="stop-color:#1F3061"/>
				<stop  offset="1" style="stop-color:#01679A"/>
			</linearGradient>
			<rect x="460.4" y="371.8" clip-path="url(#SVGID_107_)" fill="url(#SVGID_108_)" width="7.2" height="8.6"/>
		</g>
		<g>
			<defs>
				<path id="SVGID_353_" d="M309.7,374.4L309.7,374.4L309.7,374.4z M289.6,355.4l-17,3.6c-0.1,0-0.2,0-0.2,0.1
					c13.4,4.4,25.9,11,37.3,19.4v-4v-13c0-1.2-0.8-2.2-2-2.5l-17-3.6c-0.2,0-0.3-0.1-0.5-0.1S289.8,355.3,289.6,355.4"/>
			</defs>
			<clipPath id="SVGID_110_">
				<use xlink:href="#SVGID_353_"  overflow="visible"/>
			</clipPath>
			
				<radialGradient id="SVGID_111_" cx="-1429.1383" cy="835.3824" r="0.4573" gradientTransform="matrix(-45.7862 0 0 -45.7862 -65133.7109 38612.9336)" gradientUnits="userSpaceOnUse">
				<stop  offset="0" style="stop-color:#5DCBF5"/>
				<stop  offset="0.6663" style="stop-color:#2A80B0"/>
				<stop  offset="1" style="stop-color:#01679A"/>
			</radialGradient>
			<rect x="272.4" y="355.3" clip-path="url(#SVGID_110_)" fill="url(#SVGID_111_)" width="37.3" height="23.1"/>
		</g>
		<g>
			<defs>
				<path id="SVGID_356_" d="M270.6,363.3v17.4c0,0.8,0.3,1.5,0.9,1.9l17,14.3c0.9,0.8,2.3,0.8,3.3,0l11.7-9.9
					c4.1,2.8,10.3,9.1,10.3,9.1c-4.8-6.1-9-10.2-9-10.2h0l0,0c-10.3-9.8-21.8-18.2-34.2-25c0,0,0,0,0,0c0,0,0,0,0,0
					c-3.6-2-7.3-3.8-11.1-5.6C259.6,355.4,266.1,359,270.6,363.3"/>
			</defs>
			<clipPath id="SVGID_113_">
				<use xlink:href="#SVGID_356_"  overflow="visible"/>
			</clipPath>
			
				<radialGradient id="SVGID_114_" cx="-1422.9806" cy="835.4517" r="0.4573" gradientTransform="matrix(-56.3163 0 0 -56.3163 -79841.8203 47421.1484)" gradientUnits="userSpaceOnUse">
				<stop  offset="0" style="stop-color:#1DBCEE"/>
				<stop  offset="0.5918" style="stop-color:#01679A"/>
				<stop  offset="1" style="stop-color:#1F3061"/>
			</radialGradient>
			<rect x="259.6" y="355.4" clip-path="url(#SVGID_113_)" fill="url(#SVGID_114_)" width="54.3" height="42.4"/>
		</g>
		<g>
			<defs>
				<path id="SVGID_359_" d="M283.5,359.8c8.1,3.4,15.8,7.6,23.1,12.5v-10.5l-16.4-3.4L283.5,359.8z"/>
			</defs>
			<clipPath id="SVGID_116_">
				<use xlink:href="#SVGID_359_"  overflow="visible"/>
			</clipPath>
			<defs>
				<filter id="Adobe_OpacityMaskFilter" filterUnits="userSpaceOnUse" x="277.5" y="348.5" width="35.1" height="33.9">
					<feColorMatrix  type="matrix" values="1 0 0 0 0  0 1 0 0 0  0 0 1 0 0  0 0 0 1 0"/>
				</filter>
			</defs>
			<mask maskUnits="userSpaceOnUse" x="277.5" y="348.5" width="35.1" height="33.9" id="SVGID_117_">
				<g filter="url(#Adobe_OpacityMaskFilter)">
					
						<linearGradient id="SVGID_118_" gradientUnits="userSpaceOnUse" x1="-1358.2725" y1="897.0211" x2="-1357.8151" y2="897.0211" gradientTransform="matrix(10.6688 -18.4789 18.4789 10.6688 -1790.272 -34303.1914)">
						<stop  offset="0" style="stop-color:#000000"/>
						<stop  offset="8.507559e-002" style="stop-color:#0A0A0A"/>
						<stop  offset="0.2289" style="stop-color:#242424"/>
						<stop  offset="0.414" style="stop-color:#4F4F4F"/>
						<stop  offset="0.633" style="stop-color:#8B8B8B"/>
						<stop  offset="0.8779" style="stop-color:#D7D7D7"/>
						<stop  offset="1" style="stop-color:#FFFFFF"/>
					</linearGradient>
					<polygon clip-path="url(#SVGID_116_)" fill="url(#SVGID_118_)" points="300.8,382.4 312.6,361.9 289.3,348.5 277.5,368.9 					
						"/>
				</g>
			</mask>
			
				<linearGradient id="SVGID_119_" gradientUnits="userSpaceOnUse" x1="-1358.2723" y1="897.0211" x2="-1357.8151" y2="897.0211" gradientTransform="matrix(10.6688 -18.4788 18.4788 10.6688 -1790.2704 -34303.1875)">
				<stop  offset="0" style="stop-color:#1DBCEE"/>
				<stop  offset="0.1782" style="stop-color:#3ABFEF"/>
				<stop  offset="0.4791" style="stop-color:#66C8F2"/>
				<stop  offset="0.8636" style="stop-color:#9AD9F7"/>
				<stop  offset="1" style="stop-color:#ADE1FA"/>
			</linearGradient>
			<polygon clip-path="url(#SVGID_116_)" mask="url(#SVGID_117_)" fill="url(#SVGID_119_)" points="300.8,382.4 312.6,361.9 
				289.3,348.5 277.5,368.9 			"/>
		</g>
		<g>
			<defs>
				<path id="SVGID_364_" d="M273.7,380.5l16.4,13.8l10-8.4c-8.1-7.4-16.9-13.9-26.4-19.5V380.5z"/>
			</defs>
			<clipPath id="SVGID_121_">
				<use xlink:href="#SVGID_364_"  overflow="visible"/>
			</clipPath>
			
				<radialGradient id="SVGID_122_" cx="-1434.7888" cy="835.8362" r="0.4573" gradientTransform="matrix(-39.4438 0 0 -39.4438 -56300.5781 33344.9141)" gradientUnits="userSpaceOnUse">
				<stop  offset="0" style="stop-color:#1DBCEE"/>
				<stop  offset="0.5918" style="stop-color:#01679A"/>
				<stop  offset="1" style="stop-color:#1F3061"/>
			</radialGradient>
			<rect x="273.7" y="366.4" clip-path="url(#SVGID_121_)" fill="url(#SVGID_122_)" width="26.4" height="27.9"/>
		</g>
		<text transform="matrix(1 0 0 1 346.2907 390.2399)" font-family="'Verdana-BoldItalic'" font-size="7.2551">Trust. Care. Excellence</text>
	</g>
	<path fill="none" stroke="#02679A" stroke-miterlimit="10" d="M477.7,409H249.8c-9.4,0-17-7.6-17-17v-41.3c0-9.4,7.6-17,17-17
		h227.9c9.4,0,17,7.6,17,17V392C494.7,401.4,487.1,409,477.7,409z"/>
	<g>
		<line fill="#0D1333" x1="357.9" y1="333.7" x2="357.9" y2="245.7"/>
		<g>
			<line fill="none" stroke="#03679A" stroke-miterlimit="10" x1="357.9" y1="333.7" x2="357.9" y2="251.7"/>
			<g>
				<path fill="#03679A" d="M357.9,245.7c1.1,2.8,2.9,6.4,4.8,8.5l-4.8-1.7l-4.8,1.7C355,252.1,356.8,248.5,357.9,245.7z"/>
			</g>
		</g>
	</g>
	<g>
		<line fill="#0D1333" x1="357.9" y1="409" x2="357.9" y2="499.6"/>
		<g>
			<line fill="none" stroke="#03679A" stroke-miterlimit="10" x1="357.9" y1="409" x2="357.9" y2="493.5"/>
			<g>
				<path fill="#03679A" d="M357.9,499.6c-1.1-2.8-2.9-6.4-4.8-8.5l4.8,1.7l4.8-1.7C360.7,493.2,358.9,496.7,357.9,499.6z"/>
			</g>
		</g>
	</g>
	<g>
		<g>
			<polyline fill="none" stroke="#03679A" stroke-miterlimit="10" points="246.7,488.7 300.1,459.6 300.1,409 			"/>
			<g>
				<path fill="#03679A" d="M241.4,491.6c3-0.4,7-0.5,9.8,0.1l-3.8-3.4l-0.8-5C245.6,486,243.4,489.3,241.4,491.6z"/>
			</g>
		</g>
	</g>
	<g>
		<g>
			<polyline fill="none" stroke="#03679A" stroke-miterlimit="10" points="420.4,409 420.4,462.2 471,481.4 			"/>
			<g>
				<path fill="#03679A" d="M476.6,483.6c-3,0-7,0.4-9.7,1.4l3.3-3.8l0.1-5.1C471.7,478.6,474.3,481.6,476.6,483.6z"/>
			</g>
		</g>
	</g>
	<g>
		<g>
			<polyline fill="none" stroke="#03679A" stroke-miterlimit="10" points="300.1,333.7 300.1,289.7 250.8,263.1 			"/>
			<g>
				<path fill="#03679A" d="M245.5,260.2c3,0.4,7,0.5,9.8-0.1l-3.8,3.4l-0.7,5C249.7,265.8,247.5,262.5,245.5,260.2z"/>
			</g>
		</g>
	</g>
	<g>
		<g>
			<polyline fill="none" stroke="#03679A" stroke-miterlimit="10" points="420.4,333.7 420.4,285.6 464.6,270.8 			"/>
			<g>
				<path fill="#03679A" d="M470.3,268.9c-2.4,1.9-5.1,4.7-6.6,7.2l0.1-5.1l-3.1-4C463.3,268.2,467.3,268.8,470.3,268.9z"/>
			</g>
		</g>
	</g>
</g>
</svg>
